<?xml version="1.0" encoding="UTF-8"?>
<svg version="1.1" xmlns="http://www.w3.org/2000/svg" width="757" height="635">
<path d="M0 0 C0.76618652 0.00376648 1.53237305 0.00753296 2.32177734 0.01141357 C52.77466754 0.30147832 103.74412301 17.47134028 142.5625 50.25 C143.09198242 50.69069824 143.62146484 51.13139648 144.16699219 51.58544922 C155.17891871 60.75584375 165.4536085 70.26099848 174.390625 81.52734375 C175.80327974 83.29824367 177.25003566 85.04264453 178.734375 86.75390625 C205.90869386 118.31273401 225.5625 166.56871352 225.5625 208.25 C179.0325 208.25 132.5025 208.25 84.5625 208.25 C81.5625 200.25 81.5625 200.25 80.421875 197.01171875 C77.15550351 187.96018931 72.88502873 180.02929007 66.625 172.6875 C64.5625 170.25 64.5625 170.25 64.5625 168.25 C63.9025 168.25 63.2425 168.25 62.5625 168.25 C62.5625 167.59 62.5625 166.93 62.5625 166.25 C61.96961182 165.97792725 61.37672363 165.70585449 60.76586914 165.42553711 C58.6162924 164.27869921 57.09575047 163.08177725 55.30859375 161.44140625 C38.46831065 146.68768841 16.14969424 140.14144174 -6.03125 141.44140625 C-24.74153263 143.05446917 -43.16875161 150.06742322 -56.5546875 163.5 C-58.4375 165.25 -58.4375 165.25 -61.4375 166.25 C-61.4375 166.91 -61.4375 167.57 -61.4375 168.25 C-62.0975 168.25 -62.7575 168.25 -63.4375 168.25 C-63.67984375 168.78882813 -63.9221875 169.32765625 -64.171875 169.8828125 C-65.75471278 172.84330538 -67.70247876 175.41753906 -69.6875 178.125 C-76.25428573 187.43640937 -80.12523616 197.14688107 -82.60546875 208.203125 C-82.87345276 209.37029053 -82.87345276 209.37029053 -83.14685059 210.56103516 C-83.5813808 212.45637296 -84.01005809 214.35305106 -84.4375 216.25 C-82.51190498 216.24333817 -82.51190498 216.24333817 -80.54740906 216.23654175 C-68.46639873 216.19604879 -56.38540213 216.16604117 -44.30433941 216.14637566 C-38.09291957 216.13592567 -31.88155439 216.12174428 -25.67016602 216.09912109 C-19.67906467 216.07743609 -13.68801599 216.06544054 -7.69687843 216.06024551 C-5.40786726 216.05654194 -3.11885906 216.04931009 -0.82987022 216.03853989 C2.36909912 216.02408276 5.5678491 216.02201964 8.7668457 216.02294922 C9.71918594 216.01575867 10.67152618 216.00856812 11.65272522 216.00115967 C12.95889801 216.00528366 12.95889801 216.00528366 14.29145813 216.00949097 C15.04825017 216.00764738 15.80504221 216.00580379 16.58476734 216.00390434 C18.5625 216.25 18.5625 216.25 21.5625 218.25 C24.92633232 247.25853245 13.96446819 278.62239218 -3.6875 301.375 C-16.19081806 316.94749091 -31.30078272 329.62131936 -49.4375 338.25 C-50.32953125 338.67539062 -51.2215625 339.10078125 -52.140625 339.5390625 C-83.08237728 353.31913251 -117.11902756 353.95343567 -148.64526367 342.09936523 C-159.52364655 337.78593484 -170.51353126 331.85799178 -179.4375 324.25 C-179.4375 323.59 -179.4375 322.93 -179.4375 322.25 C-180.00210938 321.99992187 -180.56671875 321.74984375 -181.1484375 321.4921875 C-190.45916599 316.43960788 -201.57516172 305.39241053 -204.89599609 295.17407227 C-206.74094736 290.14056947 -208.83306826 286.21137526 -213.4375 283.25 C-223.78216357 280.4865493 -235.03525099 281.36933701 -245.6463623 281.68780518 C-249.68176157 281.7916821 -253.71737447 281.80390276 -257.75390625 281.82421875 C-265.65145435 281.87728961 -273.54281347 282.03113702 -281.4375 282.25 C-280.6628501 284.6239172 -279.8841075 286.99636252 -279.10302734 289.36816406 C-278.88674179 290.03240387 -278.67045624 290.69664368 -278.44761658 291.38101196 C-276.43379057 297.47738492 -273.89203336 303.23739547 -271.0625 309 C-270.57773193 309.99588135 -270.09296387 310.9917627 -269.59350586 312.01782227 C-266.27962014 318.73895038 -262.84189313 325.17157941 -258.4375 331.25 C-257.81004883 332.13147705 -257.81004883 332.13147705 -257.16992188 333.03076172 C-250.22526821 342.74989628 -242.73580381 351.66677589 -234.4375 360.25 C-233.75300781 360.98605469 -233.06851563 361.72210938 -232.36328125 362.48046875 C-226.65201946 368.47908962 -220.09427966 373.36632354 -213.4375 378.25 C-212.89931641 378.64896484 -212.36113281 379.04792969 -211.80664062 379.45898438 C-203.75707901 385.39075633 -195.44769798 389.95745459 -186.4375 394.25 C-184.47835207 395.26926912 -182.51998948 396.29004947 -180.5625 397.3125 C-158.06825063 408.51481542 -133.42035381 413.26058005 -108.4375 414.25 C-107.4578125 414.29125 -106.478125 414.3325 -105.46875 414.375 C-68.86086105 415.12980183 -32.05480484 405.46220515 -1.4375 385.25 C0.0165625 384.34701172 0.0165625 384.34701172 1.5 383.42578125 C42.08129057 357.68472327 70.31593231 314.09128362 81.05126953 267.6640625 C82.0829502 262.79240137 82.87895474 257.87740158 83.57519531 252.94726562 C84.0939219 249.39260633 84.53523145 247.29090282 86.5625 244.25 C89.25790315 243.98313787 91.72097464 243.90181927 94.4140625 243.95703125 C95.18809418 243.96127609 95.96212585 243.96552094 96.75961304 243.96989441 C99.23592677 243.98671002 101.71143158 244.02436605 104.1875 244.0625 C105.86457159 244.07754318 107.54165592 244.09123222 109.21875 244.10351562 C113.33364581 244.13662279 117.44793569 244.18842363 121.5625 244.25 C123.66355682 247.63953925 123.66439684 249.72649858 123.05859375 253.625 C122.81774048 255.21030518 122.81774048 255.21030518 122.57202148 256.82763672 C122.38325439 257.9570166 122.1944873 259.08639648 122 260.25 C121.80801025 261.42191895 121.61602051 262.59383789 121.41821289 263.80126953 C113.01411836 313.49416223 89.27292306 354.33561884 54.5625 390.25 C53.96074951 390.87293945 53.35899902 391.49587891 52.73901367 392.13769531 C49.06574542 395.88051957 45.27268386 399.29280773 41.125 402.5 C40.52719727 402.96398193 39.92939453 403.42796387 39.31347656 403.90600586 C-8.47496691 440.60026205 -67.88073029 459.26255209 -128.20727539 452.4753418 C-150.26461231 449.50914571 -172.05997321 444.24786897 -192.4375 435.25 C-193.37505127 434.84056152 -193.37505127 434.84056152 -194.33154297 434.42285156 C-229.67398268 418.86977209 -261.77530433 393.58538166 -284.4375 362.25 C-285.07558594 361.38375 -285.71367187 360.5175 -286.37109375 359.625 C-299.16585791 341.84341239 -308.79458495 322.71694955 -316.4375 302.25 C-316.91058594 301.02152344 -317.38367188 299.79304688 -317.87109375 298.52734375 C-322.12099629 286.78384357 -324.19918293 274.50496027 -326.4375 262.25 C-326.64632812 261.13367188 -326.85515625 260.01734375 -327.0703125 258.8671875 C-327.46844677 256.02942196 -327.57033767 253.30216767 -327.5625 250.4375 C-327.56507813 249.48230469 -327.56765625 248.52710938 -327.5703125 247.54296875 C-327.4375 245.25 -327.4375 245.25 -326.4375 244.25 C-324.66010018 244.14927381 -322.87866839 244.11923283 -321.09841919 244.11628723 C-319.94022675 244.11202225 -318.7820343 244.10775726 -317.58874512 244.10336304 C-315.66560486 244.10404282 -315.66560486 244.10404282 -313.70361328 244.10473633 C-312.34874376 244.10174634 -310.9938751 244.09834419 -309.63900757 244.09455872 C-305.94889586 244.0856973 -302.25880732 244.08337968 -298.56868601 244.08274293 C-295.49207973 244.08179543 -292.41547889 244.0781189 -289.3388747 244.07457083 C-282.08154519 244.06641783 -274.82422809 244.06398734 -267.56689453 244.06469727 C-260.07278809 244.06529802 -252.57875364 244.05474871 -245.08466542 244.0389536 C-238.65832114 244.02589004 -232.23200042 244.02051288 -225.80564296 244.02115268 C-221.9641237 244.02140805 -218.12266834 244.01853538 -214.28116226 244.00797462 C-210.66804416 243.9983137 -207.05505131 243.99820058 -203.44192886 244.00549126 C-201.48038377 244.00704043 -199.51883875 243.99867601 -197.55731201 243.99005127 C-196.39347992 243.99424576 -195.22964783 243.99844025 -194.0305481 244.00276184 C-193.01695284 244.00221707 -192.00335758 244.00167231 -190.95904732 244.00111103 C-188.4375 244.25 -188.4375 244.25 -185.4375 246.25 C-184.3671875 249.1640625 -184.3671875 249.1640625 -183.3125 252.875 C-176.29350999 275.40029791 -161.13794191 291.81346734 -140.625 303.0625 C-118.64971725 313.20493819 -95.46681596 314.32040403 -72.57421875 306.5234375 C-51.0139307 297.77044385 -34.36775276 282.50529759 -24.4375 261.25 C-21.76469734 254.8734336 -19.59684977 248.42383224 -18.88061523 241.52075195 C-18.79601547 240.71853714 -18.71141571 239.91632233 -18.62425232 239.08979797 C-18.56262405 238.48266464 -18.50099579 237.87553131 -18.4375 237.25 C-19.72345062 237.24191315 -21.00940125 237.23382629 -22.33432007 237.22549438 C-34.43045853 237.14813901 -46.52648304 237.06042692 -58.62247276 236.96247292 C-64.8417168 236.91244477 -71.0609433 236.86611544 -77.28027344 236.828125 C-83.27793768 236.79135441 -89.27545751 236.7450172 -95.27299881 236.69193649 C-97.56559348 236.67334868 -99.85821916 236.6582571 -102.15085983 236.64665604 C-105.35251528 236.62986848 -108.5538368 236.60085193 -111.75537109 236.56884766 C-112.71130661 236.56668747 -113.66724213 236.56452728 -114.65214539 236.56230164 C-115.52155258 236.55113815 -116.39095978 236.53997467 -117.28671265 236.5284729 C-118.04442648 236.52294214 -118.80214031 236.51741138 -119.58281517 236.51171303 C-121.4375 236.25 -121.4375 236.25 -123.4375 234.25 C-126.32588457 202.9450084 -114.82077205 171.83474818 -95.26928711 147.84204102 C-91.60061657 143.44471997 -87.82395591 138.94975606 -83.4375 135.25 C-82.7775 135.25 -82.1175 135.25 -81.4375 135.25 C-81.4375 134.59 -81.4375 133.93 -81.4375 133.25 C-79.30957701 131.46144404 -77.18594791 129.8134884 -74.9375 128.1875 C-74.26259521 127.69870361 -73.58769043 127.20990723 -72.89233398 126.70629883 C-44.37306998 106.43698006 -10.86689607 98.86242234 23.91015625 103.91015625 C28.23803789 104.70286892 32.39299613 105.85423014 36.5625 107.25 C37.30741699 107.49669434 38.05233398 107.74338867 38.81982422 107.99755859 C53.99205394 113.1714255 68.47539061 120.57969464 80.5625 131.25 C80.5625 131.91 80.5625 132.57 80.5625 133.25 C81.13742187 133.50136719 81.71234375 133.75273437 82.3046875 134.01171875 C94.37272327 140.63034736 104.51799847 157.14098203 110.5625 169.25 C110.5625 169.91 110.5625 170.57 110.5625 171.25 C133.3325 170.92 156.1025 170.59 179.5625 170.25 C169.4860352 143.3794272 158.82833088 122.56013603 140.5625 101.25 C139.77101563 100.32316406 138.97953125 99.39632812 138.1640625 98.44140625 C132.45944615 91.95397976 126.38511073 86.52739072 119.5625 81.25 C118.28036056 80.21855256 116.99917023 79.18592462 115.71875 78.15234375 C83.90977477 52.77559211 43.9657674 38.95499909 3.3125 39.125 C2.12100342 39.12910889 0.92950684 39.13321777 -0.2980957 39.13745117 C-33.87677309 39.35036567 -65.29783455 47.3225098 -94.4375 64.25 C-95.46399658 64.84167969 -95.46399658 64.84167969 -96.51123047 65.4453125 C-106.34118223 71.17194636 -114.96658395 77.67751444 -123.4375 85.25 C-124.89531696 86.50060218 -126.35357497 87.75069064 -127.8125 89 C-160.23529477 117.69992689 -181.18776973 160.5818164 -186.04296875 203.37109375 C-186.4375 206.25 -186.4375 206.25 -187.4375 208.25 C-192.68855442 208.27464928 -197.93957545 208.29283568 -203.19067383 208.30493164 C-204.97844021 208.30997218 -206.76620245 208.31680454 -208.55395508 208.32543945 C-211.11801168 208.3375173 -213.68201397 208.34323094 -216.24609375 208.34765625 C-217.45234657 208.35539818 -217.45234657 208.35539818 -218.68296814 208.36329651 C-220.60151715 208.36349215 -222.51995368 208.31201983 -224.4375 208.25 C-225.4375 207.25 -225.4375 207.25 -225.45703125 204.828125 C-222.42474501 156.08269343 -200.12007936 110.05345103 -167.3828125 74.44140625 C-165.41067676 72.2973004 -165.41067676 72.2973004 -163.8046875 69.96484375 C-163.35351562 69.39894531 -162.90234375 68.83304687 -162.4375 68.25 C-161.7775 68.25 -161.1175 68.25 -160.4375 68.25 C-160.4375 67.59 -160.4375 66.93 -160.4375 66.25 C-159.7775 66.25 -159.1175 66.25 -158.4375 66.25 C-158.4375 65.59 -158.4375 64.93 -158.4375 64.25 C-157.7775 64.25 -157.1175 64.25 -156.4375 64.25 C-156.4375 63.59 -156.4375 62.93 -156.4375 62.25 C-155.7775 62.25 -155.1175 62.25 -154.4375 62.25 C-154.4375 61.59 -154.4375 60.93 -154.4375 60.25 C-152.86809199 58.81187327 -151.22875965 57.4496995 -149.5625 56.125 C-148.54542969 55.31417969 -147.52835938 54.50335938 -146.48046875 53.66796875 C-145.47628906 52.87003906 -144.47210938 52.07210937 -143.4375 51.25 C-142.67050781 50.60675781 -141.90351563 49.96351563 -141.11328125 49.30078125 C-113.52806703 26.3371736 -79.46626959 11.24632023 -44.4375 4.0625 C-43.69209961 3.90765137 -42.94669922 3.75280273 -42.17871094 3.59326172 C-28.16367273 0.86332952 -14.24725462 -0.10735409 0 0 Z " fill="#FCFCFC" transform="translate(444.4375,81.75)"/>
<path d="M0 0 C1.15819244 -0.00426498 2.31638489 -0.00852997 3.50967407 -0.01292419 C5.43281433 -0.01224442 5.43281433 -0.01224442 7.39480591 -0.0115509 C8.74967543 -0.01454089 10.10454409 -0.01794304 11.45941162 -0.02172852 C15.14952333 -0.03058993 18.83961187 -0.03290755 22.52973318 -0.0335443 C25.60633946 -0.0344918 28.6829403 -0.03816834 31.75954449 -0.0417164 C39.016874 -0.0498694 46.2741911 -0.05229989 53.53152466 -0.05158997 C61.0256311 -0.05098922 68.51966555 -0.06153852 76.01375377 -0.07733363 C82.44009805 -0.0903972 88.86641877 -0.09577435 95.29277623 -0.09513456 C99.13429549 -0.09487918 102.97575085 -0.09775186 106.81725693 -0.10831261 C110.43037503 -0.11797353 114.04336788 -0.11808665 117.65649033 -0.11079597 C119.61803542 -0.10924681 121.57958044 -0.11761122 123.54110718 -0.12623596 C125.28685532 -0.11994423 125.28685532 -0.11994423 127.06787109 -0.11352539 C128.08146635 -0.11407016 129.09506161 -0.11461493 130.13937187 -0.1151762 C132.66091919 0.13371277 132.66091919 0.13371277 135.66091919 2.13371277 C136.73123169 5.04777527 136.73123169 5.04777527 137.78591919 8.75871277 C139.64519432 14.83731288 142.09364289 20.2900212 145.22341919 25.82121277 C145.59934204 26.4916864 145.97526489 27.16216003 146.36257935 27.85295105 C148.44264033 31.43087461 150.54617647 34.34386385 153.66091919 37.13371277 C153.33091919 37.79371277 153.00091919 38.45371277 152.66091919 39.13371277 C144.91679523 33.91828235 141.98456587 26.5792101 138.66091919 18.13371277 C138.66091919 17.47371277 138.66091919 16.81371277 138.66091919 16.13371277 C138.00091919 16.13371277 137.34091919 16.13371277 136.66091919 16.13371277 C134.68091919 10.19371277 134.68091919 10.19371277 132.66091919 4.13371277 C87.78091919 3.80371277 42.90091919 3.47371277 -3.33908081 3.13371277 C-3.33908081 8.08371277 -3.33908081 13.03371277 -3.33908081 18.13371277 C-2.67908081 18.13371277 -2.01908081 18.13371277 -1.33908081 18.13371277 C-1.301698 19.13531433 -1.26431519 20.13691589 -1.22579956 21.16886902 C-0.90650712 28.07530326 -0.47034505 33.87118429 2.66091919 40.13371277 C2.99425252 42.4670461 3.32758586 44.80037944 3.66091919 47.13371277 C4.64032317 49.47576577 5.64126492 51.80890103 6.66091919 54.13371277 C8.03180615 58.34938829 9.00562392 61.80184253 7.66091919 66.13371277 C1.63404327 50.35780909 -2.46962919 34.76756515 -5.33908081 18.13371277 C-5.64652222 16.47468933 -5.64652222 16.47468933 -5.96017456 14.78215027 C-6.36794005 11.93199563 -6.4719554 9.19937341 -6.46408081 6.32121277 C-6.46665894 5.36601746 -6.46923706 4.41082214 -6.47189331 3.42668152 C-6.21956628 -0.92967041 -3.80904722 0.00630244 0 0 Z " fill="#D6D6D6" transform="translate(123.33908081054688,325.8662872314453)"/>
<path d="M0 0 C0.66 0 1.32 0 2 0 C1.86722656 0.72445313 1.73445313 1.44890625 1.59765625 2.1953125 C1.42105469 3.16210938 1.24445313 4.12890625 1.0625 5.125 C0.88847656 6.07632812 0.71445312 7.02765625 0.53515625 8.0078125 C-0.0002839 11.00158738 -0.50238664 13.99973775 -1 17 C0.92559502 16.99333817 0.92559502 16.99333817 2.89009094 16.98654175 C14.97110127 16.94604879 27.05209787 16.91604117 39.13316059 16.89637566 C45.34458043 16.88592567 51.55594561 16.87174428 57.76733398 16.84912109 C63.75843533 16.82743609 69.74948401 16.81544054 75.74062157 16.81024551 C78.02963274 16.80654194 80.31864094 16.79931009 82.60762978 16.78853989 C85.80659912 16.77408276 89.0053491 16.77201964 92.2043457 16.77294922 C93.15668594 16.76575867 94.10902618 16.75856812 95.09022522 16.75115967 C96.39639801 16.75528366 96.39639801 16.75528366 97.72895813 16.75949097 C98.48575017 16.75764738 99.24254221 16.75580379 100.02226734 16.75390434 C102 17 102 17 105 19 C108.41631636 48.46113682 97.10117144 80.00008539 79 102.875 C77.34822566 104.92980404 75.67993887 106.96801512 74 109 C73.67 108.34 73.34 107.68 73 107 C73.890625 105.16015625 73.890625 105.16015625 75.25 103.0625 C75.90742188 102.02802734 75.90742188 102.02802734 76.578125 100.97265625 C77.92545959 99.10341458 79.35095759 97.60028041 81 96 C84.58903738 91.28938844 86.35473731 86.60885009 88 81 C88.99 81 89.98 81 91 81 C92.54986548 76.46962398 93.92238171 71.90081872 95.2734375 67.30859375 C96 65 96 65 97.125 62.5 C98.32135668 59.08183806 98.49303962 55.70826971 98.75390625 52.109375 C99 50 99 50 100 49 C100.15858842 46.85613343 100.25129298 44.70733162 100.31640625 42.55859375 C100.35830078 41.25341797 100.40019531 39.94824219 100.44335938 38.60351562 C100.48317608 37.2148467 100.52288825 35.82617478 100.5625 34.4375 C100.60567989 33.04490817 100.649294 31.65232972 100.69335938 30.25976562 C100.79985876 26.83995199 100.90186923 23.42006237 101 20 C99.07107407 20.00666183 99.07107407 20.00666183 97.10317993 20.01345825 C85.0071419 20.05393375 72.91111753 20.08395038 60.81502724 20.10362434 C54.59573172 20.11407879 48.37649071 20.12826821 42.15722656 20.15087891 C36.15964596 20.17254815 30.1621179 20.1845561 24.16450119 20.18975449 C21.87187243 20.19346091 19.57924667 20.20069821 17.28664017 20.21146011 C14.08507229 20.22589636 10.88372388 20.22798125 7.68212891 20.22705078 C6.72619339 20.23424133 5.77025787 20.24143188 4.78535461 20.24884033 C3.48124382 20.24471634 3.48124382 20.24471634 2.15078735 20.24050903 C1.39307352 20.24235262 0.63535969 20.24419621 -0.14531517 20.24609566 C-2 20 -2 20 -4 18 C-4.30078125 15.94140625 -4.30078125 15.94140625 -4.3125 13.5625 C-4.32925781 12.78003906 -4.34601563 11.99757813 -4.36328125 11.19140625 C-3.91678503 8.49802585 -2.95831501 7.81771804 -1 6 C-0.2730774 2.89160979 -0.2730774 2.89160979 0 0 Z " fill="#B3B3B3" transform="translate(361,281)"/>
<path d="M0 0 C7.2641925 10.89628875 9.32535652 27.28044543 11.4375 40 C11.6010498 40.98315186 11.76459961 41.96630371 11.93310547 42.97924805 C12.78733999 48.5051074 13 53.28852603 13 59 C-33.53 59 -80.06 59 -128 59 C-131 51 -131 51 -130 47 C-127 49 -127 49 -125 56 C-80.78 56 -36.56 56 9 56 C6.79818406 32.22035674 6.79818406 32.22035674 1.20703125 10.16015625 C0.09318212 6.68202693 -0.26571943 3.67873786 0 0 Z " fill="#D2D2D2" transform="translate(657,231)"/>
<path d="M0 0 C-1.43501763 3.96441739 -3.34418115 7.27314167 -5.625 10.8125 C-16.01998041 27.37516879 -23.08463096 45.10207631 -28 64 C-28.20367187 64.7734375 -28.40734375 65.546875 -28.6171875 66.34375 C-30.09327154 72.42975806 -30.78319259 78.63148262 -31.53515625 84.83984375 C-32 88 -32 88 -33 90 C-38.25105442 90.02464928 -43.50207545 90.04283568 -48.75317383 90.05493164 C-50.54094021 90.05997218 -52.32870245 90.06680454 -54.11645508 90.07543945 C-56.68051168 90.0875173 -59.24451397 90.09323094 -61.80859375 90.09765625 C-63.01484657 90.10539818 -63.01484657 90.10539818 -64.24546814 90.11329651 C-66.16401715 90.11349215 -68.08245368 90.06201983 -70 90 C-71 89 -71 89 -71.01953125 86.578125 C-69.89199572 68.45245957 -65.5525806 51.23150846 -60 34 C-59.67 34 -59.34 34 -59 34 C-58.90234375 40.15234375 -58.90234375 40.15234375 -59 42 C-59.495 42.495 -59.495 42.495 -60 43 C-60.53688602 45.49768714 -61.03465136 47.98896033 -61.5 50.5 C-62.86486486 57.86486486 -62.86486486 57.86486486 -64 59 C-64.36760731 61.32817964 -64.70241581 63.6618385 -65 66 C-65.66 66 -66.32 66 -67 66 C-66.97679687 67.15757812 -66.95359375 68.31515625 -66.9296875 69.5078125 C-66.91091852 71.04686851 -66.89271954 72.58593155 -66.875 74.125 C-66.84986328 75.26582031 -66.84986328 75.26582031 -66.82421875 76.4296875 C-66.81777344 77.17734375 -66.81132812 77.925 -66.8046875 78.6953125 C-66.79421387 79.37609863 -66.78374023 80.05688477 -66.77294922 80.75830078 C-67 83 -67 83 -69 89 C-57.45 89 -45.9 89 -34 89 C-33.75765625 86.47085938 -33.5153125 83.94171875 -33.265625 81.3359375 C-33.01801256 78.87310304 -32.76465426 76.41092248 -32.51074219 73.94873047 C-32.33806297 72.24425076 -32.17131372 70.53915901 -32.01074219 68.83349609 C-31.77815526 66.37410468 -31.52394621 63.91774308 -31.265625 61.4609375 C-31.16535004 60.32620499 -31.16535004 60.32620499 -31.06304932 59.16854858 C-30.50401785 54.12138783 -29.07720842 51.1604342 -26 47 C-24.90153738 43.59536912 -24.90153738 43.59536912 -24.25 40.125 C-24.00765625 38.97257812 -23.7653125 37.82015625 -23.515625 36.6328125 C-23.34546875 35.76398438 -23.1753125 34.89515625 -23 34 C-22.34 34 -21.68 34 -21 34 C-21 32.68 -21 31.36 -21 30 C-20.34 30 -19.68 30 -19 30 C-19 28.68 -19 27.36 -19 26 C-18.34 26 -17.68 26 -17 26 C-16.814375 24.88625 -16.814375 24.88625 -16.625 23.75 C-16.04513299 21.19858515 -15.26291261 19.2732427 -14 17 C-13.34 17 -12.68 17 -12 17 C-11.79503906 16.37351563 -11.59007812 15.74703125 -11.37890625 15.1015625 C-11.10949219 14.28429687 -10.84007812 13.46703125 -10.5625 12.625 C-10.29566406 11.81289062 -10.02882813 11.00078125 -9.75390625 10.1640625 C-9 8 -9 8 -8 6 C-7.34 6 -6.68 6 -6 6 C-6 5.34 -6 4.68 -6 4 C-2.47058824 0 -2.47058824 0 0 0 Z " fill="#ACACAC" transform="translate(290,200)"/>
<path d="M0 0 C0.33 0 0.66 0 1 0 C1.34731345 4.86238823 0.52309739 7.82718509 -2 12 C-2.99 12.495 -2.99 12.495 -4 13 C-4.46651207 15.12576782 -4.46651207 15.12576782 -4.625 17.5625 C-4.69976562 18.38878906 -4.77453125 19.21507812 -4.8515625 20.06640625 C-4.90054687 20.70449219 -4.94953125 21.34257812 -5 22 C-5.66 22 -6.32 22 -7 22 C-7 24.64 -7 27.28 -7 30 C-7.66 30 -8.32 30 -9 30 C-9 31.98 -9 33.96 -9 36 C-9.66 36 -10.32 36 -11 36 C-11 45.57 -11 55.14 -11 65 C23.65 65.33 58.3 65.66 94 66 C94 77.33846154 94 77.33846154 92.6875 81.875 C92.44386719 82.75929688 92.20023437 83.64359375 91.94921875 84.5546875 C90.95499919 87.11592801 89.68186391 88.8458016 88 91 C87.505 92.19625 87.01 93.3925 86.5 94.625 C85 98 85 98 82 100 C83.35886271 95.81017332 84.87461675 91.71819074 86.5 87.625 C89.04232735 81.04044717 91.13429443 75.12981345 91 68 C89.71404938 67.99191315 88.42809875 67.98382629 87.10317993 67.97549438 C75.00704147 67.89813901 62.91101696 67.81042692 50.81502724 67.71247292 C44.5957832 67.66244477 38.3765567 67.61611544 32.15722656 67.578125 C26.15956232 67.54135441 20.16204249 67.4950172 14.16450119 67.44193649 C11.87190652 67.42334868 9.57928084 67.4082571 7.28664017 67.39665604 C4.08498472 67.37986848 0.8836632 67.35085193 -2.31787109 67.31884766 C-3.27380661 67.31668747 -4.22974213 67.31452728 -5.21464539 67.31230164 C-6.51875618 67.29555641 -6.51875618 67.29555641 -7.84921265 67.2784729 C-8.60692648 67.27294214 -9.36464031 67.26741138 -10.14531517 67.26171303 C-12 67 -12 67 -14 65 C-15.93470054 44.03126028 -11.76478758 17.64718137 0 0 Z " fill="#909090" transform="translate(335,251)"/>
<path d="M0 0 C9.28366772 -0.20877601 18.56652463 -0.36856311 27.8520298 -0.46630955 C32.16407961 -0.5132309 36.47452072 -0.57683499 40.78564453 -0.67895508 C44.94846692 -0.77694212 49.10974527 -0.83059568 53.27363205 -0.85389519 C54.85983978 -0.87049167 56.44596533 -0.90290523 58.03151321 -0.95157051 C70.46665065 -1.31796906 70.46665065 -1.31796906 74.28712463 1.96586609 C75.84379563 4.26494874 76.96287363 6.43128782 78 9 C78.51949219 9.91652344 79.03898437 10.83304687 79.57421875 11.77734375 C80.32546924 13.2350333 81.07543996 14.69338301 81.82421875 16.15234375 C83.01891748 18.30450777 83.01891748 18.30450777 86 20 C85.67 21.32 85.34 22.64 85 24 C83.60176161 22.00164622 82.20639665 20.00137935 80.8125 18 C80.42513672 17.44699219 80.03777344 16.89398438 79.63867188 16.32421875 C79.05375977 15.48310547 79.05375977 15.48310547 78.45703125 14.625 C78.06217529 14.0777124 77.66731934 13.5304248 77.26049805 12.96655273 C76 11 76 11 75.2064209 8.93115234 C74.0986252 6.35155591 73.12845488 4.85565961 71 3 C65.90734713 1.77566011 60.83811703 1.92797396 55.63671875 2 C54.119267 1.99247819 52.60182894 1.98144133 51.08442688 1.96704102 C47.1005476 1.93864428 43.11827795 1.95787065 39.13446045 1.98712158 C35.06544553 2.00853692 30.9967197 1.98477156 26.92773438 1.96484375 C18.9514148 1.93242088 10.97622881 1.95032143 3 2 C3.78042266 4.39049231 4.56483848 6.77955031 5.3515625 9.16796875 C5.57013916 9.8388855 5.78871582 10.50980225 6.01391602 11.2010498 C7.51622905 15.74825422 9.25731692 20.07286787 11.3984375 24.36328125 C11.59695312 24.90339844 11.79546875 25.44351562 12 26 C11.67 26.66 11.34 27.32 11 28 C10.731875 27.360625 10.46375 26.72125 10.1875 26.0625 C9.11332248 23.66868314 9.11332248 23.66868314 6 23 C4.7797353 20.4525861 3.7671219 18.01965623 2.8125 15.375 C2.53986328 14.67503906 2.26722656 13.97507812 1.98632812 13.25390625 C1.72916016 12.55910156 1.47199219 11.86429687 1.20703125 11.1484375 C0.9747583 10.52114746 0.74248535 9.89385742 0.50317383 9.24755859 C-0.18914457 6.1551359 -0.02957324 3.1592144 0 0 Z " fill="#A0A0A0" transform="translate(160,362)"/>
<path d="M0 0 C0.76618652 0.00376648 1.53237305 0.00753296 2.32177734 0.01141357 C23.22583876 0.13159561 42.21366096 3.43351906 62.5625 8.25 C62.5625 8.58 62.5625 8.91 62.5625 9.25 C55.41841249 9.62970544 49.33330093 8.89071122 42.4453125 6.984375 C38.48839021 5.97637854 34.62678501 5.58869042 30.5625 5.25 C30.5625 4.59 30.5625 3.93 30.5625 3.25 C-6.99616089 1.66180706 -6.99616089 1.66180706 -43.88671875 6.6171875 C-47.19383397 7.43763569 -50.05399801 7.48605828 -53.4375 7.25 C-53.4375 7.91 -53.4375 8.57 -53.4375 9.25 C-55.1390625 9.4665625 -55.1390625 9.4665625 -56.875 9.6875 C-60.24527201 9.86171478 -60.24527201 9.86171478 -61.4375 11.25 C-63.43708364 11.29080783 -65.43795254 11.29254356 -67.4375 11.25 C-60.82342424 6.84061616 -52.56112796 5.76826679 -44.875 4.1875 C-44.10357666 4.02523926 -43.33215332 3.86297852 -42.53735352 3.69580078 C-28.40183519 0.88212279 -14.37973625 -0.10835235 0 0 Z " fill="#ABABAB" transform="translate(444.4375,81.75)"/>
<path d="M0 0 C1.32 0.33 2.64 0.66 4 1 C4 2.65 4 4.3 4 6 C4.66 6 5.32 6 6 6 C6.2165625 7.7015625 6.2165625 7.7015625 6.4375 9.4375 C6.61171478 12.80777201 6.61171478 12.80777201 8 14 C8 16.64 8 19.28 8 22 C-15.76 22 -39.52 22 -64 22 C-64 21.34 -64 20.68 -64 20 C-64.66 20 -65.32 20 -66 20 C-66.433125 18.9275 -66.86625 17.855 -67.3125 16.75 C-68.29776129 14.40705808 -69.14227623 12.82215471 -70.75 10.8125 C-71.1625 10.214375 -71.575 9.61625 -72 9 C-71.578125 6.88671875 -71.578125 6.88671875 -71 5 C-69.84735447 6.74552064 -68.70312673 8.49660196 -67.5625 10.25 C-66.60537109 11.71179688 -66.60537109 11.71179688 -65.62890625 13.203125 C-64 16 -64 16 -63 20 C-28.845 19.505 -28.845 19.505 6 19 C4.02 13.72 2.04 8.44 0 3 C0 2.01 0 1.02 0 0 Z " fill="#E4E4E4" transform="translate(618,233)"/>
<path d="M0 0 C2.27136027 -0.00215 4.54220465 -0.02020573 6.81347656 -0.03930664 C18.87370595 -0.08710158 30.98137703 0.42465823 42.50878906 4.31030273 C43.58 4.66350586 44.65121094 5.01670898 45.75488281 5.38061523 C46.51929688 5.64616211 47.28371094 5.91170898 48.07128906 6.18530273 C44.243734 7.59594956 41.3994607 6.75797471 37.50878906 5.81030273 C27.02478375 3.26367715 16.57546309 3.0153317 5.82128906 3.06030273 C4.62979248 3.06441162 3.4382959 3.06852051 2.21069336 3.07275391 C-16.06478052 3.18863439 -33.05776966 5.35958846 -50.62402344 10.31811523 C-53.71845185 11.13012836 -56.76639169 11.71431902 -59.92871094 12.18530273 C-56.92871094 10.18530273 -56.92871094 10.18530273 -54.92871094 10.18530273 C-54.92871094 9.52530273 -54.92871094 8.86530273 -54.92871094 8.18530273 C-51.63882038 5.99204236 -50.16162699 5.86201389 -46.30371094 5.62280273 C-42.80365784 5.68255144 -42.80365784 5.68255144 -39.92871094 4.18530273 C-33.09115248 2.72174507 -26.17338816 1.9327171 -19.20605469 1.43139648 C-5.95413752 -0.00062887 -5.95413752 -0.00062887 0 0 Z " fill="#A0A0A0" transform="translate(441.9287109375,117.814697265625)"/>
<path d="M0 0 C0.33 0 0.66 0 1 0 C1.09765625 6.15234375 1.09765625 6.15234375 1 8 C0.67 8.33 0.34 8.66 0 9 C-0.53688602 11.49768714 -1.03465136 13.98896033 -1.5 16.5 C-2.86486486 23.86486486 -2.86486486 23.86486486 -4 25 C-4.36760731 27.32817964 -4.70241581 29.6618385 -5 32 C-5.66 32 -6.32 32 -7 32 C-6.97679687 33.15757812 -6.95359375 34.31515625 -6.9296875 35.5078125 C-6.91091852 37.04686851 -6.89271954 38.58593155 -6.875 40.125 C-6.84986328 41.26582031 -6.84986328 41.26582031 -6.82421875 42.4296875 C-6.81777344 43.17734375 -6.81132812 43.925 -6.8046875 44.6953125 C-6.79421387 45.37609863 -6.78374023 46.05688477 -6.77294922 46.75830078 C-7 49 -7 49 -9 55 C2.55 55 14.1 55 26 55 C26.66 48.07 27.32 41.14 28 34 C28.66 34 29.32 34 30 34 C30.33 32.68 30.66 31.36 31 30 C30.40472441 35.65511815 29.72850224 41.29802766 29 46.9375 C28.835 48.22527344 28.67 49.51304687 28.5 50.83984375 C28 54 28 54 27 56 C21.74894558 56.02464928 16.49792455 56.04283568 11.24682617 56.05493164 C9.45905979 56.05997218 7.67129755 56.06680454 5.88354492 56.07543945 C3.31948832 56.0875173 0.75548603 56.09323094 -1.80859375 56.09765625 C-3.01484657 56.10539818 -3.01484657 56.10539818 -4.24546814 56.11329651 C-6.16401715 56.11349215 -8.08245368 56.06201983 -10 56 C-11 55 -11 55 -11.01953125 52.578125 C-9.89199572 34.45245957 -5.5525806 17.23150846 0 0 Z " fill="#B1B1B1" transform="translate(230,234)"/>
<path d="M0 0 C0.495 0.99 0.495 0.99 1 2 C-3.95 1.01 -3.95 1.01 -9 0 C-9 -0.66 -9 -1.32 -9 -2 C-10.65 -2 -12.3 -2 -14 -2 C-14 -2.66 -14 -3.32 -14 -4 C-14.92683594 -4.13277344 -15.85367188 -4.26554688 -16.80859375 -4.40234375 C-18.60490234 -4.66724609 -18.60490234 -4.66724609 -20.4375 -4.9375 C-22.22994141 -5.19853516 -22.22994141 -5.19853516 -24.05859375 -5.46484375 C-27 -6 -27 -6 -28 -7 C-29.56972008 -7.1589566 -31.14624688 -7.25143059 -32.72265625 -7.31640625 C-33.72562744 -7.35838135 -34.72859863 -7.40035645 -35.76196289 -7.44360352 C-36.85114014 -7.48283936 -37.94031738 -7.5220752 -39.0625 -7.5625 C-40.72430298 -7.62618774 -40.72430298 -7.62618774 -42.41967773 -7.69116211 C-53.94648201 -8.09594002 -65.46787111 -8.10130942 -77 -8 C-77 -7.34 -77 -6.68 -77 -6 C-81.62 -5.67 -86.24 -5.34 -91 -5 C-72.59932165 -23.40067835 -20.3463686 -9.48407078 0 0 Z " fill="#9F9F9F" transform="translate(499,196)"/>
<path d="M0 0 C2.69540315 -0.26686213 5.15847464 -0.34818073 7.8515625 -0.29296875 C8.62559418 -0.28872391 9.39962585 -0.28447906 10.19711304 -0.28010559 C12.67342677 -0.26328998 15.14893158 -0.22563395 17.625 -0.1875 C19.30207159 -0.17245682 20.97915592 -0.15876778 22.65625 -0.14648438 C26.77114581 -0.11337721 30.88543569 -0.06157637 35 0 C37.22582656 3.51148743 37.04767775 5.75337492 36.390625 9.796875 C36.21273437 10.9209375 36.03484375 12.045 35.8515625 13.203125 C35.65304687 14.37359375 35.45453125 15.5440625 35.25 16.75 C35.06695313 17.905 34.88390625 19.06 34.6953125 20.25 C33.72229585 26.25255339 32.59027587 32.13043634 31 38 C30.67 38 30.34 38 30 38 C30.6818403 29.91445121 31.57659529 21.86611921 32.5625 13.8125 C33.036875 9.914375 33.51125 6.01625 34 2 C17.665 2.495 17.665 2.495 1 3 C0.01 8.94 -0.98 14.88 -2 21 C-2.66 21 -3.32 21 -4 21 C-3.71840367 18.06121273 -3.42518615 15.12439587 -3.125 12.1875 C-3.04636719 11.35412109 -2.96773437 10.52074219 -2.88671875 9.66210938 C-2.80292969 8.85966797 -2.71914063 8.05722656 -2.6328125 7.23046875 C-2.55949707 6.49207764 -2.48618164 5.75368652 -2.41064453 4.99291992 C-2 3 -2 3 0 0 Z " fill="#A2A2A2" transform="translate(531,326)"/>
<path d="M0 0 C0.91007812 0.00902344 1.82015625 0.01804687 2.7578125 0.02734375 C3.80582031 0.04474609 3.80582031 0.04474609 4.875 0.0625 C4.875 0.3925 4.875 0.7225 4.875 1.0625 C-25.11049816 7.68892023 -55.5446428 11.29150764 -86.125 6.0625 C-86.125 5.7325 -86.125 5.4025 -86.125 5.0625 C-85.51271545 5.06472061 -84.90043091 5.06694122 -84.26959229 5.06922913 C-77.84461048 5.09150864 -71.41963982 5.10650029 -64.99462891 5.11743164 C-62.6030228 5.1224323 -60.21141971 5.12923498 -57.81982422 5.13793945 C-54.3642502 5.15019326 -50.90871693 5.15577114 -47.453125 5.16015625 C-46.39949768 5.16531754 -45.34587036 5.17047882 -44.26031494 5.17579651 C-31.28049693 5.61465779 -31.28049693 5.61465779 -19.125 2.0625 C-17.09149998 1.80089589 -15.04684917 1.61818417 -13 1.5 C-8.40210885 1.2245762 -4.58342026 -0.0587618 0 0 Z " fill="#A6A6A6" transform="translate(394.125,526.9375)"/>
<path d="M0 0 C1.01673766 0.00092179 2.03347532 0.00184359 3.08102322 0.00279331 C4.24355114 0.00141865 5.40607906 0.00004398 6.60383511 -0.00137234 C8.53404507 0.00402058 8.53404507 0.00402058 10.50324917 0.00952244 C11.86298527 0.00980431 13.22272153 0.00964658 14.58245754 0.00907993 C18.28477281 0.00879196 21.98705595 0.01468871 25.68936372 0.02165389 C29.55444283 0.0278874 33.41952261 0.02849123 37.28460598 0.0296793 C44.60860185 0.03279262 51.93258287 0.04100602 59.25657219 0.05102879 C67.5925895 0.06218989 75.92860751 0.06770037 84.26463044 0.07272422 C101.4170139 0.08318864 118.5693829 0.1007881 135.72175503 0.12304783 C135.72175503 0.45304783 135.72175503 0.78304783 135.72175503 1.12304783 C90.84175503 1.45304783 45.96175503 1.78304783 -0.27824497 2.12304783 C-0.60824497 7.40304783 -0.93824497 12.68304783 -1.27824497 18.12304783 C-1.60824497 18.12304783 -1.93824497 18.12304783 -2.27824497 18.12304783 C-3.4911778 12.51323349 -3.60935881 6.83963085 -3.27824497 1.12304783 C-2.27824497 0.12304783 -2.27824497 0.12304783 0 0 Z " fill="#838383" transform="translate(120.278244972229,325.8769521713257)"/>
<path d="M0 0 C5.53881727 0.58244388 11.03962794 1.27700841 16.546875 2.10424805 C34.77867495 4.83665815 52.4081974 5.55204375 70.8125 4 C71.99392578 3.90460938 73.17535156 3.80921875 74.39257812 3.7109375 C77.26213071 3.47858506 80.13121003 3.24155526 83 3 C74.32914276 8.78057149 61.87758147 7.27698509 51.84936523 7.20581055 C49.2035141 7.18761016 46.55801656 7.18530122 43.91210938 7.18554688 C16.84225845 7.13262594 16.84225845 7.13262594 11 4 C9.845 3.855625 8.69 3.71125 7.5 3.5625 C4.00169132 3.00027182 2.55728025 2.35269783 0 0 Z " fill="#A5A5A5" transform="translate(292,491)"/>
<path d="M0 0 C17.49 0 34.98 0 53 0 C54.88774631 4.40474138 56.59785564 8.63726754 58.1875 13.125 C61.24833865 21.16319026 65.51647395 30.16079952 72 36 C71.505 36.99 71.505 36.99 71 38 C63.25587604 32.78456958 60.32364668 25.44549733 57 17 C57 16.34 57 15.68 57 15 C56.34 15 55.68 15 55 15 C54.32968281 13.0429132 53.66385317 11.08428887 53 9.125 C52.62875 8.03445313 52.2575 6.94390625 51.875 5.8203125 C51 3 51 3 51 1 C34.17 1 17.34 1 0 1 C0 0.67 0 0.34 0 0 Z " fill="#C0C0C0" transform="translate(205,327)"/>
<path d="M0 0 C0.33 0 0.66 0 1 0 C-0.33263203 21.76632319 -13.60220111 45.89503484 -25 64 C-25.99 64.495 -25.99 64.495 -27 65 C-26.125 60.25 -26.125 60.25 -25 58 C-24.34 58 -23.68 58 -23 58 C-22.76216797 57.1646875 -22.76216797 57.1646875 -22.51953125 56.3125 C-21.23353396 52.10636522 -19.84761368 48.53016804 -17.375 44.875 C-14.97030962 41.28227806 -14.49729183 38.30986251 -14 34 C-13.52949219 33.40058594 -13.05898438 32.80117188 -12.57421875 32.18359375 C-10.61171049 29.46140487 -10.13445135 27.08219749 -9.4375 23.8125 C-9.01979017 21.86082753 -8.55405275 19.91742862 -8 18 C-7.34 17.67 -6.68 17.34 -6 17 C-5.27306096 15.02111039 -4.60183749 13.02045442 -4 11 C-3.34 11 -2.68 11 -2 11 C-1.855625 9.9275 -1.71125 8.855 -1.5625 7.75 C-1.16250558 5.08337051 -0.72408076 2.58600271 0 0 Z " fill="#AFAFAF" transform="translate(560,364)"/>
<path d="M0 0 C2.10448938 0.14109986 4.2085877 0.28804175 6.3125 0.4375 C7.48425781 0.51871094 8.65601563 0.59992187 9.86328125 0.68359375 C13 1 13 1 16 2 C18.05893621 2.22325814 20.12233653 2.40705759 22.1875 2.5625 C23.27417969 2.64628906 24.36085938 2.73007812 25.48046875 2.81640625 C26.72763672 2.90728516 26.72763672 2.90728516 28 3 C28 3.66 28 4.32 28 5 C48.46 5 68.92 5 90 5 C90 5.33 90 5.66 90 6 C80.3476041 7.01946392 70.75466619 7.16309824 61.0625 7.125 C60.29032135 7.12245209 59.5181427 7.11990417 58.7225647 7.11727905 C54.14587562 7.09959839 49.56952394 7.06630701 44.99304199 7.01959229 C43.22488467 7.00221069 41.4566804 6.98975975 39.68847656 6.97802734 C25.95958849 6.84013078 13.26832456 4.4866091 0 1 C0 0.67 0 0.34 0 0 Z " fill="#E8E8E8" transform="translate(281,526)"/>
<path d="M0 0 C0.66 0 1.32 0 2 0 C1.25859187 20.75942765 -12.48183874 43.88865237 -27 58 C-25.09456738 52.8699891 -22.86007561 48.86007561 -19 45 C-15.41096262 40.28938844 -13.64526269 35.60885009 -12 30 C-11.01 30 -10.02 30 -9 30 C-7.76750952 26.39733552 -6.63361124 22.77805307 -5.5625 19.125 C-4.6202841 15.93964065 -3.58910617 12.84152887 -2.375 9.75 C-1.16168281 6.44095312 -0.43546857 3.48374856 0 0 Z " fill="#9B9B9B" transform="translate(461,332)"/>
<path d="M0 0 C1.13953125 0.00064453 2.2790625 0.00128906 3.453125 0.00195312 C11.84359056 0.04679528 11.84359056 0.04679528 14.125 1.1875 C15.80996 1.34303477 17.49832131 1.46271729 19.1875 1.5625 C25.23589418 2.05592163 30.69036785 3.47018393 36.125 6.1875 C36.125 7.1775 36.125 8.1675 36.125 9.1875 C35.4959375 8.99414062 34.866875 8.80078125 34.21875 8.6015625 C33.3628125 8.34117187 32.506875 8.08078125 31.625 7.8125 C30.7896875 7.55726563 29.954375 7.30203125 29.09375 7.0390625 C11.93012856 2.11581319 -4.24842242 1.74978182 -21.875 4.1875 C-20.875 2.1875 -20.875 2.1875 -17.6171875 1.07421875 C-11.79529777 -0.25200825 -5.93962912 -0.06515759 0 0 Z " fill="#ABABAB" transform="translate(444.875,220.8125)"/>
<path d="M0 0 C4.16507217 0.54005376 6.54445439 1.83065101 9.8125 4.4375 C10.60269531 5.05496094 11.39289063 5.67242187 12.20703125 6.30859375 C12.79871094 6.86675781 13.39039063 7.42492187 14 8 C14 8.66 14 9.32 14 10 C15.32 10 16.64 10 18 10 C19.37527405 11.29002979 20.70317626 12.63113049 22 14 C24.86306027 15.89537789 27.78971841 17.64881025 30.734375 19.4140625 C31.48203125 19.93742187 32.2296875 20.46078125 33 21 C33 21.66 33 22.32 33 23 C33.99 23 34.98 23 36 23 C36 23.66 36 24.32 36 25 C36.57234375 25.12246094 37.1446875 25.24492187 37.734375 25.37109375 C40.09953191 26.02762868 42.07206797 26.93723512 44.25 28.0625 C44.95640625 28.42472656 45.6628125 28.78695313 46.390625 29.16015625 C46.92171875 29.43730469 47.4528125 29.71445312 48 30 C47.01 30.495 47.01 30.495 46 31 C36.49531594 27.57031627 27.98028181 21.54491518 19.625 16 C18.60325684 15.32396729 17.58151367 14.64793457 16.52880859 13.95141602 C10.69699755 10.02306314 4.97673201 6.00028407 0 1 C0 0.67 0 0.34 0 0 Z " fill="#ACACAC" transform="translate(196,481)"/>
<path d="M0 0 C0.33 0 0.66 0 1 0 C1.34731345 4.86238823 0.52309739 7.82718509 -2 12 C-2.99 12.495 -2.99 12.495 -4 13 C-4.46651207 15.12576782 -4.46651207 15.12576782 -4.625 17.5625 C-4.69976562 18.38878906 -4.77453125 19.21507812 -4.8515625 20.06640625 C-4.90054687 20.70449219 -4.94953125 21.34257812 -5 22 C-5.66 22 -6.32 22 -7 22 C-7 24.64 -7 27.28 -7 30 C-7.66 30 -8.32 30 -9 30 C-9 31.98 -9 33.96 -9 36 C-9.66 36 -10.32 36 -11 36 C-11 41.61 -11 47.22 -11 53 C-11.33 53 -11.66 53 -12 53 C-12.67386087 34.56241785 -10.53913763 15.80870644 0 0 Z " fill="#B2B2B2" transform="translate(335,251)"/>
<path d="M0 0 C4.17906895 3.55994763 6.68559431 8.08663054 9 13 C9 13.66 9 14.32 9 15 C31.77 15 54.54 15 78 15 C78 15.33 78 15.66 78 16 C68.90767909 16.02314035 59.81536827 16.04092375 50.72302437 16.05181217 C46.50137418 16.05703728 42.27974409 16.06412822 38.05810547 16.07543945 C33.98623328 16.0862815 29.91438047 16.09227964 25.84249496 16.09487724 C24.28671844 16.09672911 22.73094302 16.10034518 21.17517471 16.10573006 C19.00103693 16.11295795 16.82697984 16.1139902 14.65283203 16.11352539 C12.79418015 16.11685631 12.79418015 16.11685631 10.89797974 16.12025452 C8 16 8 16 6 15 C5.24734877 13.26562978 4.49904149 11.52885373 3.796875 9.7734375 C3.00919999 7.8365635 3.00919999 7.8365635 1.3125 5.8125 C0 4 0 4 0 0 Z " fill="#8C8C8C" transform="translate(546,238)"/>
<path d="M0 0 C4.68593542 3.30671128 7.59848342 7.22070095 10.8125 11.875 C11.33295898 12.62080322 11.85341797 13.36660645 12.38964844 14.13500977 C25 32.44569144 25 32.44569144 25 37 C24.34 37 23.68 37 23 37 C23 36.01 23 35.02 23 34 C22.34 34 21.68 34 21 34 C19.45546184 31.62952154 18.02271838 29.26764258 16.625 26.8125 C14.00086796 22.24213669 11.30198182 18.12370789 8 14 C8 13.34 8 12.68 8 12 C7.34 12 6.68 12 6 12 C4.6273318 10.02678947 3.29572383 8.02456848 2 6 C1.34 5.34 0.68 4.68 0 4 C0 2.68 0 1.36 0 0 Z " fill="#A5A5A5" transform="translate(619,165)"/>
<path d="M0 0 C16.17 0 32.34 0 49 0 C49 0.33 49 0.66 49 1 C40.06482872 2.58094658 31.32100821 3.21463832 22.25 3.25 C21.30503662 3.25902344 20.36007324 3.26804687 19.38647461 3.27734375 C12.74107759 3.24961367 6.49500178 2.38480125 0 1 C0 0.67 0 0.34 0 0 Z " fill="#AAAAAA" transform="translate(316,429)"/>
<path d="M0 0 C-0.96679688 0.47308594 -1.93359375 0.94617188 -2.9296875 1.43359375 C-10.5492664 5.26789291 -16.92473178 9.14475957 -23.046875 15.21484375 C-25 17 -25 17 -28 18 C-28 18.66 -28 19.32 -28 20 C-28.66 20 -29.32 20 -30 20 C-30.226875 20.556875 -30.45375 21.11375 -30.6875 21.6875 C-32.35896766 24.63246684 -34.55276352 26.68156544 -37 29 C-36.42764145 24.99349018 -35.49112269 22.21435185 -33 19 C-31.04786825 17.68305212 -29.0391915 16.51297083 -27 15.3359375 C-24.94984038 13.96649494 -23.6451916 12.61488578 -22.125 10.6875 C-21.073125 9.3571875 -21.073125 9.3571875 -20 8 C-19.34 8 -18.68 8 -18 8 C-18 7.34 -18 6.68 -18 6 C-17.41992188 5.74605469 -16.83984375 5.49210938 -16.2421875 5.23046875 C-15.46101563 4.88628906 -14.67984375 4.54210937 -13.875 4.1875 C-12.64523437 3.64609375 -12.64523437 3.64609375 -11.390625 3.09375 C-9.43350617 2.19833616 -7.5210998 1.20577582 -5.625 0.1875 C-3 -1 -3 -1 0 0 Z " fill="#9E9E9E" transform="translate(411,230)"/>
<path d="M0 0 C0.33 0.66 0.66 1.32 1 2 C0.328125 3.91015625 0.328125 3.91015625 -0.75 6.0625 C-1.09546875 6.77535156 -1.4409375 7.48820313 -1.796875 8.22265625 C-3 10 -3 10 -6 11 C-6.73323796 13.01508358 -6.73323796 13.01508358 -7 15 C-7.66 15 -8.32 15 -9 15 C-9 15.99 -9 16.98 -9 18 C-9.66 18 -10.32 18 -11 18 C-11 18.99 -11 19.98 -11 21 C-11.66 21 -12.32 21 -13 21 C-13 22.32 -13 23.64 -13 25 C-13.66 25 -14.32 25 -15 25 C-15.12375 25.598125 -15.2475 26.19625 -15.375 26.8125 C-16 29 -16 29 -18 32 C-18.66 32 -19.32 32 -20 32 C-20 32.99 -20 33.98 -20 35 C-20.66 35 -21.32 35 -22 35 C-17.2401722 22.68558312 -9.39941769 9.39941769 0 0 Z " fill="#A4A4A4" transform="translate(266,169)"/>
<path d="M0 0 C3.12290635 0.48578543 5.99580359 0.9986012 9 2 C9 2.66 9 3.32 9 4 C9.99 4 10.98 4 12 4 C12 4.66 12 5.32 12 6 C13.32 6 14.64 6 16 6 C16.33 7.32 16.66 8.64 17 10 C17.7425 10.061875 18.485 10.12375 19.25 10.1875 C22.82784961 11.24459193 23.7098314 13.13728925 26 16 C28.63460948 16.87943404 28.63460948 16.87943404 31 17 C31.33 18.65 31.66 20.3 32 22 C29.25905494 20.71020972 26.91634029 19.28938456 24.53125 17.42578125 C23.88285156 16.92602783 23.23445312 16.42627441 22.56640625 15.91137695 C21.54353516 15.11993286 21.54353516 15.11993286 20.5 14.3125 C14.5649723 9.77342893 8.62577901 5.79414252 2.0625 2.20703125 C1.381875 1.80871094 0.70125 1.41039062 0 1 C0 0.67 0 0.34 0 0 Z " fill="#B4B4B4" transform="translate(535,142)"/>
<path d="M0 0 C-2.14542621 1.2298816 -4.29134121 2.45889789 -6.4375 3.6875 C-7.07913086 4.05544678 -7.72076172 4.42339355 -8.38183594 4.80249023 C-11.8154801 6.76747036 -15.26430236 8.69090019 -18.75 10.5625 C-23.76403868 13.31974914 -28.37135375 16.64688883 -33 20 C-33.33 18.68 -33.66 17.36 -34 16 C-32.68 15.67 -31.36 15.34 -30 15 C-30 14.34 -30 13.68 -30 13 C-28.68 13 -27.36 13 -26 13 C-26 12.34 -26 11.68 -26 11 C-25.01 11 -24.02 11 -23 11 C-23 10.34 -23 9.68 -23 9 C-21.68 9 -20.36 9 -19 9 C-19 8.34 -19 7.68 -19 7 C-17.68 7 -16.36 7 -15 7 C-15 6.34 -15 5.68 -15 5 C-14.34 5 -13.68 5 -13 5 C-12.67 4.01 -12.34 3.02 -12 2 C-10.0390625 1.015625 -10.0390625 1.015625 -7.625 0.25 C-6.83351563 -0.01296875 -6.04203125 -0.2759375 -5.2265625 -0.546875 C-3 -1 -3 -1 0 0 Z " fill="#AFAFAF" transform="translate(363,139)"/>
<path d="M0 0 C1.91341283 2.87011925 2.70261726 4.92111735 3.65625 8.19140625 C3.95660156 9.21943359 4.25695312 10.24746094 4.56640625 11.30664062 C4.87449219 12.38107422 5.18257812 13.45550781 5.5 14.5625 C5.80808594 15.60986328 6.11617187 16.65722656 6.43359375 17.73632812 C9.07135082 26.84394856 11.3527314 35.47625208 11 45 C9.48668979 42.19707246 8.55130315 39.61149038 7.8515625 36.5078125 C7.65264404 35.64422119 7.45372559 34.78062988 7.2487793 33.89086914 C7.04293213 32.97813232 6.83708496 32.06539551 6.625 31.125 C4.89888857 23.62367461 3.0025987 16.257301 0.69921875 8.91015625 C-0.0383586 5.8403511 -0.12656116 3.14527928 0 0 Z " fill="#A1A1A1" transform="translate(657,231)"/>
<path d="M0 0 C4.02796987 0.4956115 8.05203823 1.0013014 12.0703125 1.5703125 C12.73933594 1.66183594 13.40835937 1.75335938 14.09765625 1.84765625 C15.45795296 2.03374694 16.81734776 2.22654434 18.17578125 2.42578125 C22.38021419 2.98691447 25.8573764 2.83201569 30 2 C32.67810075 1.88803927 35.31732686 1.95374701 38 2 C36.30491635 4.10183426 35.43103461 4.92953176 32.72265625 5.37231445 C31.40587891 5.36784302 31.40587891 5.36784302 30.0625 5.36328125 C29.08410156 5.36263672 28.10570312 5.36199219 27.09765625 5.36132812 C26.07542969 5.34521484 25.05320312 5.32910156 24 5.3125 C23.00871094 5.31572266 22.01742188 5.31894531 20.99609375 5.32226562 C14.14520472 5.2731393 7.69405739 4.43879408 1 3 C0.67 2.01 0.34 1.02 0 0 Z " fill="#B8B8B8" transform="translate(318,391)"/>
<path d="M0 0 C1.32 0.33 2.64 0.66 4 1 C3.09378906 1.76183594 2.18757813 2.52367187 1.25390625 3.30859375 C-8.19120556 11.29511637 -17.08379999 19.45996409 -25 29 C-25 24.64821959 -23.10850306 22.14545316 -20.125 19.0625 C-19.073125 18.0415625 -19.073125 18.0415625 -18 17 C-17.13832447 15.94358047 -16.28446766 14.8807475 -15.4375 13.8125 C-13 11 -13 11 -10 10 C-9.67 9.01 -9.34 8.02 -9 7 C-6.9375 6.3125 -6.9375 6.3125 -5 6 C-5 5.34 -5 4.68 -5 4 C-4.34 4 -3.68 4 -3 4 C-3 3.34 -3 2.68 -3 2 C-2.01 2 -1.02 2 0 2 C0 1.34 0 0.68 0 0 Z " fill="#A9A9A9" transform="translate(325,159)"/>
<path d="M0 0 C0.33 0 0.66 0 1 0 C1.05513412 1.66627552 1.09329293 3.33311412 1.125 5 C1.14820313 5.928125 1.17140625 6.85625 1.1953125 7.8125 C1 11 1 11 -1 19 C-12.55 19 -24.1 19 -36 19 C-36 17.35 -36 15.7 -36 14 C-35.34 13.67 -34.68 13.34 -34 13 C-34 14.65 -34 16.3 -34 18 C-23.77 18 -13.54 18 -3 18 C-2.28408898 12.98862283 -1.70690572 8.0709212 -1.28125 3.0390625 C-1 1 -1 1 0 0 Z " fill="#E4E4E4" transform="translate(257,270)"/>
<path d="M0 0 C0.66 0.33 1.32 0.66 2 1 C-0.39682756 3.77527402 -2.62949148 4.66341903 -6 6 C-7.78410702 6.93338932 -9.55465357 7.89304816 -11.3125 8.875 C-14.62705841 10.71741269 -17.93693917 12.46416052 -21.375 14.0625 C-24.23321798 15.43911111 -25.41397267 16.42338114 -27.75 18.8125 C-28.4925 19.534375 -29.235 20.25625 -30 21 C-32.140625 20.63671875 -32.140625 20.63671875 -34 20 C-23.65054487 12.14359904 -12.43708762 4.14569587 0 0 Z " fill="#B1B1B1" transform="translate(347,104)"/>
<path d="M0 0 C0 3.92477316 -1.17664876 4.65641968 -3.8125 7.5 C-4.62976563 8.38300781 -5.44703125 9.26601563 -6.2890625 10.17578125 C-9.95851225 13.99856536 -13.7126832 17.72763855 -17.48828125 21.4453125 C-19.58648303 23.57940887 -21.4981021 25.73688357 -23.375 28.0625 C-25.9341516 30.92631251 -27.3197726 32.10480955 -31 33 C-31.99 33 -32.98 33 -34 33 C-24.52810975 24.44036147 -24.52810975 24.44036147 -20.125 20.6875 C-16.52814521 17.55309797 -13.13061408 14.23872636 -9.75 10.875 C-8.98840576 10.12029419 -8.98840576 10.12029419 -8.21142578 9.3503418 C-5.25572376 6.38242613 -2.55349695 3.31954604 0 0 Z " fill="#A2A2A2" transform="translate(488,427)"/>
<path d="M0 0 C3.66704983 3.29094216 5.23677063 5.16621398 6 10 C6.515625 10.495 7.03125 10.99 7.5625 11.5 C9 13 9 13 9.1875 15.6875 C9.125625 16.450625 9.06375 17.21375 9 18 C9.99 18 10.98 18 12 18 C12.226875 19.134375 12.45375 20.26875 12.6875 21.4375 C13.74877589 25.81526305 15.71713414 29.30601408 18.07421875 33.1171875 C18.37972656 33.73851562 18.68523437 34.35984375 19 35 C18.67 35.66 18.34 36.32 18 37 C0 8.02272727 0 8.02272727 0 0 Z " fill="#999999" transform="translate(132,392)"/>
<path d="M0 0 C0 0.33 0 0.66 0 1 C-13.86 1 -27.72 1 -42 1 C-42 1.66 -42 2.32 -42 3 C-46.62 3.33 -51.24 3.66 -56 4 C-50.70158311 -1.29841689 -40.4600162 -0.41013407 -33.4375 -0.625 C-31.86391724 -0.68083252 -31.86391724 -0.68083252 -30.25854492 -0.73779297 C-6.44457552 -1.52922131 -6.44457552 -1.52922131 0 0 Z " fill="#DCDCDC" transform="translate(464,187)"/>
<path d="M0 0 C0.33 0 0.66 0 1 0 C1.18175781 0.92941406 1.36351563 1.85882813 1.55078125 2.81640625 C2.9920148 10.55753592 2.9920148 10.55753592 5.625 17.9375 C7.150384 21.33494619 7.47541912 24.32793386 8 28 C8.97940398 30.34205301 9.98034573 32.67518826 11 35 C12.37088696 39.21567552 13.34470473 42.66812976 12 47 C3.97036585 25.14934345 3.97036585 25.14934345 1.5 13.9375 C1.26071777 12.86072998 1.26071777 12.86072998 1.01660156 11.76220703 C0.19559354 7.78704927 -0.15182526 4.05499967 0 0 Z " fill="#A2A2A2" transform="translate(119,345)"/>
<path d="M0 0 C2 0 2 0 4.625 2.375 C7 5 7 5 7 7 C7.66 7 8.32 7 9 7 C9.43570313 8.01578125 9.87140625 9.0315625 10.3203125 10.078125 C10.92111035 11.46908052 11.5227317 12.85968053 12.125 14.25 C12.43759766 14.97276123 12.75019531 15.69552246 13.07226562 16.44018555 C15.49340665 21.98007413 18.1549331 27.3248125 21.03125 32.64453125 C22 35 22 35 21 38 C20.50371094 36.98421875 20.00742187 35.9684375 19.49609375 34.921875 C13.99402478 23.73906302 8.15681281 12.91914127 1.06640625 2.64453125 C0 1 0 1 0 0 Z " fill="#959595" transform="translate(596,195)"/>
<path d="M0 0 C0.91007812 0.00902344 1.82015625 0.01804687 2.7578125 0.02734375 C3.80582031 0.04474609 3.80582031 0.04474609 4.875 0.0625 C4.875 0.3925 4.875 0.7225 4.875 1.0625 C-8.46028743 4.09400635 -21.41251102 6.84068033 -35.125 7.0625 C-35.125 6.4025 -35.125 5.7425 -35.125 5.0625 C-34.30515625 5.01351562 -33.4853125 4.96453125 -32.640625 4.9140625 C-31.56296875 4.83929687 -30.4853125 4.76453125 -29.375 4.6875 C-28.30765625 4.61789062 -27.2403125 4.54828125 -26.140625 4.4765625 C-23.20810451 4.23848712 -23.20810451 4.23848712 -21.1171875 3.05859375 C-18.41108979 1.70554489 -16.00677383 1.67360979 -13 1.5 C-8.40210885 1.2245762 -4.58342026 -0.0587618 0 0 Z " fill="#AEAEAE" transform="translate(394.125,526.9375)"/>
<path d="M0 0 C0.99 0.33 1.98 0.66 3 1 C-3.15755563 7.75602215 -9.58409874 13.42799984 -17.0625 18.6875 C-17.81265381 19.21633789 -18.56280762 19.74517578 -19.33569336 20.29003906 C-24.72276836 24 -24.72276836 24 -27 24 C-27 23.34 -27 22.68 -27 22 C-26.34 22 -25.68 22 -25 22 C-25 21.01 -25 20.02 -25 19 C-23.68 19 -22.36 19 -21 19 C-21 18.34 -21 17.68 -21 17 C-20.01 17 -19.02 17 -18 17 C-18 16.34 -18 15.68 -18 15 C-16.68 15 -15.36 15 -14 15 C-14 14.34 -14 13.68 -14 13 C-13.34 13 -12.68 13 -12 13 C-12 12.34 -12 11.68 -12 11 C-11.41605469 10.75378906 -10.83210938 10.50757813 -10.23046875 10.25390625 C-7.65462178 8.80583817 -6.20349432 7.19766892 -4.3125 4.9375 C-3.71050781 4.22464844 -3.10851562 3.51179688 -2.48828125 2.77734375 C-1.99714844 2.19082031 -1.50601562 1.60429687 -1 1 C-0.67 0.67 -0.34 0.34 0 0 Z " fill="#ACACAC" transform="translate(431,390)"/>
<path d="M0 0 C0.66 0 1.32 0 2 0 C2.52895566 9.03142808 1.69802756 17.70173898 -4 25 C-4.7425 26.794375 -4.7425 26.794375 -5.5 28.625 C-7 32 -7 32 -10 34 C-8.24271615 28.58920042 -6.20028295 23.31704086 -4.12109375 18.0234375 C-3.25015232 15.67462681 -2.52998327 13.44149596 -2 11 C-1.34 11 -0.68 11 0 11 C0 7.37 0 3.74 0 0 Z " fill="#BBBBBB" transform="translate(427,317)"/>
<path d="M0 0 C0.66 0.33 1.32 0.66 2 1 C-4.53111856 8.14068962 -11.06342342 15.24703868 -18 22 C-18.66 21.67 -19.32 21.34 -20 21 C-19.34 19.68 -18.68 18.36 -18 17 C-17.34 17 -16.68 17 -16 17 C-16 16.34 -16 15.68 -16 15 C-15.34 15 -14.68 15 -14 15 C-14 14.34 -14 13.68 -14 13 C-11.625 10.375 -11.625 10.375 -9 8 C-8.34 8 -7.68 8 -7 8 C-6.67 6.68 -6.34 5.36 -6 4 C-5.01 4 -4.02 4 -3 4 C-3 3.01 -3 2.02 -3 1 C-2.01 0.67 -1.02 0.34 0 0 Z " fill="#A5A5A5" transform="translate(510,457)"/>
<path d="M0 0 C0.33 0 0.66 0 1 0 C0.64139467 13.16081562 -1.81179764 25.25424412 -5 38 C-5.66 38 -6.32 38 -7 38 C-7.042721 36.33388095 -7.04063832 34.66617115 -7 33 C-6.505 32.505 -6.505 32.505 -6 32 C-5.64773697 30.56442541 -5.34733167 29.11603496 -5.0703125 27.6640625 C-4.89661133 26.75946289 -4.72291016 25.85486328 -4.54394531 24.92285156 C-3.64189256 20.07573505 -2.74955483 15.22715976 -1.875 10.375 C-1.69324219 9.37082031 -1.51148438 8.36664063 -1.32421875 7.33203125 C-0.88199574 4.88816724 -0.44060236 2.44415662 0 0 Z " fill="#E6E6E6" transform="translate(563,337)"/>
<path d="M0 0 C-20.13934426 9 -20.13934426 9 -30 9 C-30 8.34 -30 7.68 -30 7 C-24.28264895 4.54970669 -20.20970773 3.66733709 -14 4 C-14 3.34 -14 2.68 -14 2 C-12.02 2 -10.04 2 -8 2 C-8 1.34 -8 0.68 -8 0 C-4.71303767 -0.79953138 -3.28976808 -1.09658936 0 0 Z " fill="#BDBDBD" transform="translate(395,420)"/>
<path d="M0 0 C4.17310283 3.25705586 7.56244382 6.70414745 10.98828125 10.73046875 C14.78746492 15.0165381 18.91476693 18.988745 23 23 C22.01 23.33 21.02 23.66 20 24 C20 23.34 20 22.68 20 22 C19.34 22 18.68 22 18 22 C17.401875 21.236875 16.80375 20.47375 16.1875 19.6875 C13.93970318 16.92592105 12.08543761 15.69699068 9 14 C4.98768888 11.59261333 4.37181365 9.38980367 3 5 C1.4587688 3.29078411 1.4587688 3.29078411 0 2 C0 1.34 0 0.68 0 0 Z " fill="#A9A9A9" transform="translate(195,427)"/>
<path d="M0 0 C0.33 0 0.66 0 1 0 C1.31626513 7.13353581 1.34858192 12.53377284 -2 19 C-2.86653315 21.05733499 -3.7196767 23.1203387 -4.5625 25.1875 C-5.9370097 28.52314814 -7.34052779 31.79576564 -9 35 C-10 33 -10 33 -9.51855469 31.14331055 C-9.23915039 30.39863525 -8.95974609 29.65395996 -8.671875 28.88671875 C-8.36773682 28.05624023 -8.06359863 27.22576172 -7.75024414 26.37011719 C-7.42016357 25.48485352 -7.09008301 24.59958984 -6.75 23.6875 C-3.90666074 15.8547723 -1.57053766 8.19671083 0 0 Z " fill="#A1A1A1" transform="translate(526,347)"/>
<path d="M0 0 C0.33 1.32 0.66 2.64 1 4 C0.34 4 -0.32 4 -1 4 C-1.0825 4.70125 -1.165 5.4025 -1.25 6.125 C-2.16891853 9.64752104 -3.89484665 12.10150993 -6 15 C-7.23285612 16.72653811 -8.46178052 18.45588809 -9.6875 20.1875 C-10.59048828 21.44626953 -10.59048828 21.44626953 -11.51171875 22.73046875 C-13.14597825 25.01161395 -13.14597825 25.01161395 -14 28 C-15.95597184 29.39712274 -17.95436401 30.73779907 -20 32 C-18.30270345 28.17641986 -15.84873612 24.96766035 -13.375 21.625 C-8.3381659 14.71802684 -4.08162135 7.50197443 0 0 Z " fill="#999999" transform="translate(509,395)"/>
<path d="M0 0 C0.99 0.495 0.99 0.495 2 1 C2.33333333 3 2.66666667 5 3 7 C5.16772935 12.70455091 8.04786773 18.03131091 10.890625 23.42578125 C11.25671875 24.27527344 11.6228125 25.12476563 12 26 C11.67 26.66 11.34 27.32 11 28 C10.731875 27.360625 10.46375 26.72125 10.1875 26.0625 C9.11332248 23.66868314 9.11332248 23.66868314 6 23 C4.7797353 20.4525861 3.7671219 18.01965623 2.8125 15.375 C2.53986328 14.67503906 2.26722656 13.97507812 1.98632812 13.25390625 C0.27573256 8.63229719 -0.29063656 4.92144577 0 0 Z " fill="#C2C2C2" transform="translate(160,362)"/>
<path d="M0 0 C-1.50549203 4.1810556 -3.57898174 7.74042527 -5.9375 11.5 C-6.62714844 12.6034375 -7.31679688 13.706875 -8.02734375 14.84375 C-8.67832031 15.8853125 -9.32929688 16.926875 -10 18 C-11.00427273 19.66409557 -12.00596364 21.32976963 -13 23 C-14 21 -14 21 -13.0390625 18.03125 C-12.57242187 16.8659375 -12.10578125 15.700625 -11.625 14.5 C-11.16351563 13.3346875 -10.70203125 12.169375 -10.2265625 10.96875 C-9.53352687 9.29133891 -8.81166574 7.62333148 -8 6 C-7.34 6 -6.68 6 -6 6 C-6 5.34 -6 4.68 -6 4 C-2.47058824 0 -2.47058824 0 0 0 Z " fill="#A8A8A8" transform="translate(290,200)"/>
<path d="M0 0 C0.66 0 1.32 0 2 0 C0.832854 11.28241135 -7.01925814 20.3774602 -15 28 C-13.09456738 22.8699891 -10.86007561 18.86007561 -7 15 C-3.41096262 10.28938844 -1.64526269 5.60885009 0 0 Z " fill="#ACACAC" transform="translate(449,362)"/>
<path d="M0 0 C2.97 0.495 2.97 0.495 6 1 C6 1.66 6 2.32 6 3 C6.8353125 3.14695312 6.8353125 3.14695312 7.6875 3.296875 C12.63842871 4.26698941 16.71693604 5.68659742 21.1640625 8.05078125 C25.92696495 10.51330315 30.71682621 11.36601915 36 12 C36 12.66 36 13.32 36 14 C29.74304017 13.4552933 24.41951153 11.97936726 18.5625 9.75 C17.72936279 9.43861084 16.89622559 9.12722168 16.0378418 8.80639648 C10.38206202 6.64729992 5.15001982 4.20661612 0 1 C0 0.67 0 0.34 0 0 Z " fill="#A0A0A0" transform="translate(280,415)"/>
<path d="M0 0 C-4.0401928 1.1510738 -8.08239553 2.29492761 -12.125 3.4375 C-13.26710938 3.76298828 -14.40921875 4.08847656 -15.5859375 4.42382812 C-16.69453125 4.73642578 -17.803125 5.04902344 -18.9453125 5.37109375 C-19.96125488 5.65911865 -20.97719727 5.94714355 -22.02392578 6.24389648 C-25.00329239 7.00083647 -27.96208778 7.53857005 -31 8 C-28 6 -28 6 -26 6 C-26 5.34 -26 4.68 -26 4 C-22.71010944 1.80673963 -21.23291605 1.67671115 -17.375 1.4375 C-13.8749469 1.49724871 -13.8749469 1.49724871 -11 0 C-6.97279717 -0.75984959 -3.92759816 -1.16180608 0 0 Z " fill="#A6A6A6" transform="translate(413,122)"/>
<path d="M0 0 C0.33 0.66 0.66 1.32 1 2 C0.09176973 4.43557572 -0.86828071 6.76195517 -1.9375 9.125 C-2.22818359 9.78371094 -2.51886719 10.44242187 -2.81835938 11.12109375 C-3.53860198 12.75049505 -4.26841143 14.37566132 -5 16 C-5.99 16 -6.98 16 -8 16 C-8 14.02 -8 12.04 -8 10 C-7.34 10 -6.68 10 -6 10 C-5.87625 9.2575 -5.7525 8.515 -5.625 7.75 C-5.03438237 5.15128245 -4.43713552 3.23554414 -3 1 C-2.01 0.67 -1.02 0.34 0 0 Z " fill="#BEBEBE" transform="translate(369,265)"/>
<path d="M0 0 C3.11839982 3.71470825 5.01996165 7.89207958 7.0625 12.25 C7.5894043 13.33861328 7.5894043 13.33861328 8.12695312 14.44921875 C10.38544475 19.23944106 11.87011469 23.824774 13 29 C10.42585694 27.71292847 10.20395528 26.64082864 9.0546875 24.03515625 C8.70019531 23.23529297 8.34570312 22.43542969 7.98046875 21.61132812 C7.61566406 20.77021484 7.25085938 19.92910156 6.875 19.0625 C6.50246094 18.22525391 6.12992188 17.38800781 5.74609375 16.52539062 C3 10.27375229 3 10.27375229 3 8 C2.34 8 1.68 8 1 8 C-0.35439668 5.29120665 -0.06501451 2.99066732 0 0 Z " fill="#A2A2A2" transform="translate(644,202)"/>
<path d="M0 0 C2.77932896 2.77932896 4.08414173 6.1794355 5.75 9.6875 C8.57638682 15.5165987 11.37729708 20.37729708 16 25 C15.67 25.66 15.34 26.32 15 27 C9.34883362 22.85266788 6.3419786 18.76613642 3.5625 12.375 C3.21251953 11.62476563 2.86253906 10.87453125 2.50195312 10.1015625 C0.79676189 6.33746129 0 4.25203217 0 0 Z " fill="#9F9F9F" transform="translate(261,338)"/>
<path d="M0 0 C4.11713848 2.262164 7.46843506 5.05265802 10.875 8.25 C11.39803711 8.73509033 11.92107422 9.22018066 12.45996094 9.7199707 C16.39910006 13.39053216 20.23556286 17.15000747 24 21 C23.67 21.66 23.34 22.32 23 23 C22.13117187 22.09636719 21.26234375 21.19273437 20.3671875 20.26171875 C19.20353434 19.06991269 18.03944884 17.87852865 16.875 16.6875 C16.30523438 16.09259766 15.73546875 15.49769531 15.1484375 14.88476562 C11.66556401 11.34252497 8.56842772 9.09554723 4 7 C2.75 4.875 2.75 4.875 2 3 C1.34 2.67 0.68 2.34 0 2 C0 1.34 0 0.68 0 0 Z " fill="#8F8F8F" transform="translate(588,134)"/>
<path d="M0 0 C0.886875 0.515625 1.77375 1.03125 2.6875 1.5625 C4.1233154 2.37797325 5.56114237 3.18990667 7 4 C8.00417969 4.5671875 9.00835937 5.134375 10.04296875 5.71875 C16.2649573 9.16163229 22.16281838 12.02996462 29 14 C24.53426976 15.46257541 22.22614851 13.89448037 18 12 C16.01178687 11.60235737 14.01267638 11.24544834 12 11 C12 10.34 12 9.68 12 9 C11.01 9 10.02 9 9 9 C9 8.34 9 7.68 9 7 C7.68 7 6.36 7 5 7 C2.25 4.625 2.25 4.625 0 2 C0 1.34 0 0.68 0 0 Z " fill="#A2A2A2" transform="translate(289,376)"/>
<path d="M0 0 C14.78132118 0.59453303 14.78132118 0.59453303 21 4 C21 4.66 21 5.32 21 6 C21.99 6.33 22.98 6.66 24 7 C21.18734843 8.40632578 19.94712559 7.53440321 16.9921875 6.56640625 C16.00605469 6.24736328 15.01992188 5.92832031 14.00390625 5.59960938 C12.97136719 5.25736328 11.93882812 4.91511719 10.875 4.5625 C9.83472656 4.22412109 8.79445313 3.88574219 7.72265625 3.53710938 C5.14620491 2.6979899 2.57220464 1.85203094 0 1 C0 0.67 0 0.34 0 0 Z " fill="#B1B1B1" transform="translate(491,125)"/>
<path d="M0 0 C3.16515303 3.05196822 5.62948633 6.43848596 8.1875 10 C8.65091797 10.6290625 9.11433594 11.258125 9.59179688 11.90625 C13 16.64460604 13 16.64460604 13 20 C9.01441173 17.09631398 6.4100602 14.1017856 3.6875 10 C2.64142578 8.453125 2.64142578 8.453125 1.57421875 6.875 C0 4 0 4 0 0 Z " fill="#B0B0B0" transform="translate(181,407)"/>
<path d="M0 0 C0.598125 0.309375 1.19625 0.61875 1.8125 0.9375 C4.08956772 2.10209704 4.08956772 2.10209704 7 3 C7 3.66 7 4.32 7 5 C7.680625 5.226875 8.36125 5.45375 9.0625 5.6875 C12.70759576 7.31615981 16.03166668 9.31094535 19 12 C19.33 12.99 19.66 13.98 20 15 C16.16009012 13.61624869 13.02947436 11.83690651 9.6875 9.5 C8.80449219 8.8915625 7.92148437 8.283125 7.01171875 7.65625 C6.34785156 7.1096875 5.68398438 6.563125 5 6 C5 5.34 5 4.68 5 4 C4.360625 3.71125 3.72125 3.4225 3.0625 3.125 C1 2 1 2 0 0 Z " fill="#ADADAD" transform="translate(260,400)"/>
<path d="M0 0 C0.66 0.33 1.32 0.66 2 1 C0.35 1.66 -1.3 2.32 -3 3 C-3 3.66 -3 4.32 -3 5 C-6.6678852 6.96189209 -9.87248551 8.39301257 -14 9 C-14 9.66 -14 10.32 -14 11 C-15.98 11.33 -17.96 11.66 -20 12 C-16.53669947 7.98365934 -12.55386246 5.97671088 -7.875 3.6875 C-7.14667969 3.31560547 -6.41835938 2.94371094 -5.66796875 2.56054688 C-3.81093201 1.63889371 -1.90781287 0.81134459 0 0 Z " fill="#ACACAC" transform="translate(397,194)"/>
<path d="M0 0 C4.90406787 1.46741876 9.20535074 3.52130678 13.6875 5.9375 C14.68233398 6.45860352 14.68233398 6.45860352 15.69726562 6.99023438 C18.85690239 8.67982866 21.67973165 10.22784418 24 13 C21.03824877 12.38722388 19.61941217 11.74627478 17 10 C15.0103005 9.60986284 13.00980131 9.26797351 11 9 C11 8.34 11 7.68 11 7 C9.68 7 8.36 7 7 7 C7 6.01 7 5.02 7 4 C4.69 3.34 2.38 2.68 0 2 C0 1.34 0 0.68 0 0 Z " fill="#ABABAB" transform="translate(541,104)"/>
<path d="M0 0 C1.65 0 3.3 0 5 0 C0.7086029 3.40889945 -3.95775068 5.40860045 -8.9375 7.625 C-9.83146484 8.03234375 -10.72542969 8.4396875 -11.64648438 8.859375 C-12.51466797 9.24867188 -13.38285156 9.63796875 -14.27734375 10.0390625 C-15.06359131 10.39178223 -15.84983887 10.74450195 -16.65991211 11.10791016 C-19.09338648 12.03560085 -21.43695911 12.56123782 -24 13 C-24 12.34 -24 11.68 -24 11 C-21.95900065 10.2066145 -19.9171691 9.4153697 -17.875 8.625 C-16.73804688 8.18414063 -15.60109375 7.74328125 -14.4296875 7.2890625 C-11.30717487 6.11545297 -8.17184369 5.03157226 -5 4 C-5 3.34 -5 2.68 -5 2 C-3.35 2 -1.7 2 0 2 C0 1.34 0 0.68 0 0 Z " fill="#A0A0A0" transform="translate(443,508)"/>
<path d="M0 0 C1 3 1 3 0.2590332 4.98950195 C-0.13968994 5.73159912 -0.53841309 6.47369629 -0.94921875 7.23828125 C-1.38556641 8.05876953 -1.82191406 8.87925781 -2.27148438 9.72460938 C-2.73876953 10.57861328 -3.20605469 11.43261719 -3.6875 12.3125 C-4.13544922 13.15490234 -4.58339844 13.99730469 -5.04492188 14.86523438 C-7.48677819 19.41128128 -10.0504819 23.76568011 -13 28 C-14 25 -14 25 -13.0625 22.8125 C-12.5365625 21.9153125 -12.5365625 21.9153125 -12 21 C-11.34 21 -10.68 21 -10 21 C-9.84144531 20.443125 -9.68289063 19.88625 -9.51953125 19.3125 C-7.99177524 14.31564056 -6.10156177 10.16026469 -3.18359375 5.82421875 C-1.96267614 3.94247445 -0.96835641 2.02149979 0 0 Z " fill="#999999" transform="translate(547,401)"/>
<path d="M0 0 C6.75 0.875 6.75 0.875 9 2 C9 2.66 9 3.32 9 4 C9.99 4 10.98 4 12 4 C14 6.75 14 6.75 16 10 C16.98866506 11.34175973 17.9838154 12.67896002 19 14 C16.17199209 12.70280507 14.0352968 11.28975118 11.75 9.1875 C8.54859517 6.35415256 5.18655311 4.13974367 1.50390625 1.98046875 C1.00761719 1.65691406 0.51132812 1.33335937 0 1 C0 0.67 0 0.34 0 0 Z " fill="#AFAFAF" transform="translate(488,234)"/>
<path d="M0 0 C3.60813026 0.99223582 6.57927533 2.27453001 9.6875 4.3125 C14.5218238 7.46654427 19.71249632 9.71587617 25 12 C22.41539999 12.97509909 21.36233411 13.15692639 18.78125 12.0390625 C18.0284375 11.57242187 17.275625 11.10578125 16.5 10.625 C13.65741614 8.88245715 11.28488685 7.64204607 8 7 C8 6.34 8 5.68 8 5 C6.68 5 5.36 5 4 5 C4 4.34 4 3.68 4 3 C2.68 3 1.36 3 0 3 C0 2.01 0 1.02 0 0 Z " fill="#A0A0A0" transform="translate(241,468)"/>
<path d="M0 0 C1.32 0.33 2.64 0.66 4 1 C4 2.65 4 4.3 4 6 C4.66 6 5.32 6 6 6 C6.33 10.29 6.66 14.58 7 19 C4.92782515 15.89173772 3.71574645 12.98123641 2.375 9.5 C1.92898438 8.3553125 1.48296875 7.210625 1.0234375 6.03125 C0 3 0 3 0 0 Z " fill="#ACACAC" transform="translate(618,233)"/>
<path d="M0 0 C1.12008181 3.28703748 0.95426104 4.83854902 -0.5625 7.9375 C-1.11357422 9.09378906 -1.11357422 9.09378906 -1.67578125 10.2734375 C-2.11277344 11.17320312 -2.54976562 12.07296875 -3 13 C-4.08647918 15.35271647 -5.16972211 17.70692969 -6.25 20.0625 C-7.16603776 22.04195783 -8.08248518 24.02122638 -9 26 C-9.33 25.34 -9.66 24.68 -10 24 C-9.17944876 21.58608744 -8.29859371 19.28296582 -7.3125 16.9375 C-7.03647949 16.26517334 -6.76045898 15.59284668 -6.47607422 14.90014648 C-4.40843315 9.89222117 -2.24852273 4.92945368 0 0 Z " fill="#9B9B9B" transform="translate(241,208)"/>
<path d="M0 0 C8.95788336 0.42516959 17.32210784 1.74175965 26 4 C26 4.66 26 5.32 26 6 C20.05349367 5.35215814 14.32612517 4.28016565 8.5 2.9375 C7.67757813 2.75123047 6.85515625 2.56496094 6.0078125 2.37304688 C4.0044283 1.91879115 2.0020997 1.45988401 0 1 C0 0.67 0 0.34 0 0 Z " fill="#A5A5A5" transform="translate(281,526)"/>
<path d="M0 0 C4.13514614 0.54351832 6.54670918 1.80786095 9.8125 4.375 C10.60269531 4.98085938 11.39289063 5.58671875 12.20703125 6.2109375 C12.79871094 6.80132812 13.39039063 7.39171875 14 8 C14 8.99 14 9.98 14 11 C9.96407129 9.63079505 7.32473622 7.80419512 4.1875 4.9375 C3.39730469 4.22464844 2.60710937 3.51179688 1.79296875 2.77734375 C1.20128906 2.19082031 0.60960937 1.60429687 0 1 C0 0.67 0 0.34 0 0 Z " fill="#AEAEAE" transform="translate(196,481)"/>
<path d="M0 0 C0.66 0.33 1.32 0.66 2 1 C-5.82226097 6.6711392 -12.30761154 8.5362592 -22 8 C-22 7.67 -22 7.34 -22 7 C-20.49759766 6.61908203 -20.49759766 6.61908203 -18.96484375 6.23046875 C-17.62232073 5.88310265 -16.27987701 5.53542995 -14.9375 5.1875 C-14.28072266 5.02185547 -13.62394531 4.85621094 -12.94726562 4.68554688 C-9.52577682 3.79225177 -6.3507102 2.76842697 -3.12890625 1.30078125 C-2.09636719 0.87152344 -1.06382812 0.44226563 0 0 Z " fill="#A5A5A5" transform="translate(379,385)"/>
<path d="M0 0 C10.08562115 0.27899367 18.46803132 1.54405857 28 5 C24.47020092 6.20467209 21.96986544 5.79130044 18.359375 5.00390625 C17.28945313 4.77509766 16.21953125 4.54628906 15.1171875 4.31054688 C14.00601562 4.06369141 12.89484375 3.81683594 11.75 3.5625 C10.06003906 3.19801758 10.06003906 3.19801758 8.3359375 2.82617188 C5.55548119 2.22531055 2.77706428 1.61631561 0 1 C0 0.67 0 0.34 0 0 Z " fill="#A6A6A6" transform="translate(462,119)"/>
<path d="M0 0 C0.33 0 0.66 0 1 0 C0.40472441 5.65511815 -0.27149776 11.29802766 -1 16.9375 C-1.165 18.22527344 -1.33 19.51304687 -1.5 20.83984375 C-2 24 -2 24 -3 26 C-3.99 25.67 -4.98 25.34 -6 25 C-5.34 25 -4.68 25 -4 25 C-3.01 14.605 -3.01 14.605 -2 4 C-1.34 4 -0.68 4 0 4 C0 2.68 0 1.36 0 0 Z " fill="#8F8F8F" transform="translate(260,264)"/>
<path d="M0 0 C7.4596963 0.74596963 14.68951218 2.36746129 22 4 C22 4.33 22 4.66 22 5 C13.78762084 5.57184845 7.53994257 4.26682231 0 1 C0 0.67 0 0.34 0 0 Z " fill="#AAAAAA" transform="translate(485,86)"/>
<path d="M0 0 C0.66 0 1.32 0 2 0 C0.56525156 4.09501116 -1.43465486 7.2603761 -4 10.75 C-4.70125 11.71421875 -5.4025 12.6784375 -6.125 13.671875 C-8 16 -8 16 -10 17 C-8.99471631 14.98492462 -7.98577992 12.97204278 -6.96484375 10.96484375 C-6.62582031 10.29582031 -6.28679688 9.62679688 -5.9375 8.9375 C-5.59589844 8.26589844 -5.25429688 7.59429687 -4.90234375 6.90234375 C-3.88509619 4.85671686 -3.88509619 4.85671686 -3 2 C-2.01 2 -1.02 2 0 2 C0 1.34 0 0.68 0 0 Z " fill="#A6A6A6" transform="translate(531,429)"/>
<path d="M0 0 C3.42409111 3.06679465 5.27342685 6.11716523 7.25 10.25 C7.77078125 11.32765625 8.2915625 12.4053125 8.828125 13.515625 C9.21484375 14.33546875 9.6015625 15.1553125 10 16 C8.09765625 15.70703125 8.09765625 15.70703125 6 15 C4.91698965 12.70401807 3.92203709 10.36522558 3 8 C2.443125 7.278125 1.88625 6.55625 1.3125 5.8125 C0 4 0 4 0 0 Z " fill="#ADADAD" transform="translate(546,238)"/>
<path d="M0 0 C0.66 0.33 1.32 0.66 2 1 C-1.28882719 5.38510292 -4.35920638 9.29578837 -9.8125 10.75 C-10.534375 10.8325 -11.25625 10.915 -12 11 C-12 10.34 -12 9.68 -12 9 C-10.03062339 7.37643654 -8.06654852 5.86440434 -6 4.375 C-5.42765625 3.95476562 -4.8553125 3.53453125 -4.265625 3.1015625 C-2.84796067 2.06194199 -1.42450738 1.03022409 0 0 Z " fill="#B2B2B2" transform="translate(375,206)"/>
<path d="M0 0 C6.39895163 2.90861438 11.58246742 6.53555185 17 11 C16.01 11.495 16.01 11.495 15 12 C14.154375 11.401875 13.30875 10.80375 12.4375 10.1875 C9.11600768 7.9599598 5.70795447 6.48318179 2 5 C2 4.01 2 3.02 2 2 C1.34 2 0.68 2 0 2 C0 1.34 0 0.68 0 0 Z " fill="#999999" transform="translate(565,117)"/>
<path d="M0 0 C1.134375 0.020625 2.26875 0.04125 3.4375 0.0625 C0.04076697 1.91526347 -3.43154604 3.05299196 -7.125 4.1875 C-8.26066406 4.54070313 -9.39632813 4.89390625 -10.56640625 5.2578125 C-13.5625 6.0625 -13.5625 6.0625 -16.5625 6.0625 C-16.5625 5.4025 -16.5625 4.7425 -16.5625 4.0625 C-14.9125 4.0625 -13.2625 4.0625 -11.5625 4.0625 C-11.5625 3.4025 -11.5625 2.7425 -11.5625 2.0625 C-9.8609375 1.8459375 -9.8609375 1.8459375 -8.125 1.625 C-4.13770521 0.99542714 -4.0324238 0.07074428 0 0 Z " fill="#AAAAAA" transform="translate(415.5625,520.9375)"/>
<path d="M0 0 C7.67462965 0.93975057 15.33677447 1.9722497 23 3 C23 3.33 23 3.66 23 4 C15.6094524 4.14715692 8.35575165 3.70776992 1 3 C0.67 2.01 0.34 1.02 0 0 Z " fill="#9D9D9D" transform="translate(318,391)"/>
<path d="M0 0 C1.3077036 2.6154072 0.76582573 3.5640522 0.00390625 6.3515625 C-0.22490234 7.20234375 -0.45371094 8.053125 -0.68945312 8.9296875 C-0.93630859 9.81914062 -1.18316406 10.70859375 -1.4375 11.625 C-1.68048828 12.5221875 -1.92347656 13.419375 -2.17382812 14.34375 C-2.77621451 16.56431158 -3.38518001 18.78285481 -4 21 C-4.33 21 -4.66 21 -5 21 C-4.93950287 18.62246262 -4.85232887 16.25080939 -4.75 13.875 C-4.73582031 13.20984375 -4.72164063 12.5446875 -4.70703125 11.859375 C-4.45113231 6.63903668 -3.11202852 3.99584462 0 0 Z " fill="#D3D3D3" transform="translate(264,247)"/>
<path d="M0 0 C0 0.99 0 1.98 0 3 C-0.66 3 -1.32 3 -2 3 C-2.226875 3.556875 -2.45375 4.11375 -2.6875 4.6875 C-4.35896766 7.63246684 -6.55276352 9.68156544 -9 12 C-8.43417868 8.03925073 -7.30304271 5.27740694 -5 2 C-2 0 -2 0 0 0 Z " fill="#B3B3B3" transform="translate(383,247)"/>
<path d="M0 0 C4.05819183 0.65503282 7.53971282 1.94559121 11.3125 3.5625 C12.38113281 4.01753906 13.44976563 4.47257812 14.55078125 4.94140625 C15.76314453 5.46541016 15.76314453 5.46541016 17 6 C17 6.33 17 6.66 17 7 C15.02 7 13.04 7 11 7 C11 6.34 11 5.68 11 5 C9.35 5 7.7 5 6 5 C6 4.34 6 3.68 6 3 C4.02 3 2.04 3 0 3 C0 2.01 0 1.02 0 0 Z " fill="#B1B1B1" transform="translate(524,97)"/>
<path d="M0 0 C3.68069887 1.53643852 5.98775204 3.78150945 8.75 6.625 C9.54921875 7.44226563 10.3484375 8.25953125 11.171875 9.1015625 C12.07679688 10.04128906 12.07679688 10.04128906 13 11 C12.67 11.66 12.34 12.32 12 13 C9.525 12.01 9.525 12.01 7 11 C7 9.68 7 8.36 7 7 C6.34 7 5.68 7 5 7 C5 6.34 5 5.68 5 5 C4.34 5 3.68 5 3 5 C1.375 2.5 1.375 2.5 0 0 Z " fill="#A7A7A7" transform="translate(525,215)"/>
<path d="M0 0 C3.16230974 2.39309927 5.95907605 4.56265439 8 8 C8 9.32 8 10.64 8 12 C7.34 12 6.68 12 6 12 C4.6273318 10.02678947 3.29572383 8.02456848 2 6 C1.34 5.34 0.68 4.68 0 4 C0 2.68 0 1.36 0 0 Z " fill="#B5B5B5" transform="translate(619,165)"/>
<path d="M0 0 C0.66 0 1.32 0 2 0 C2 0.99 2 1.98 2 3 C0.1015625 4.60546875 0.1015625 4.60546875 -2.375 6.1875 C-3.18710937 6.71730469 -3.99921875 7.24710937 -4.8359375 7.79296875 C-7 9 -7 9 -9 9 C-9 8.34 -9 7.68 -9 7 C-8.34 7 -7.68 7 -7 7 C-7 6.01 -7 5.02 -7 4 C-5.68 4 -4.36 4 -3 4 C-3 3.34 -3 2.68 -3 2 C-2.01 2 -1.02 2 0 2 C0 1.34 0 0.68 0 0 Z " fill="#B5B5B5" transform="translate(413,405)"/>
<path d="M0 0 C0.33 0 0.66 0 1 0 C1.20496094 0.99902344 1.40992187 1.99804688 1.62109375 3.02734375 C1.89050781 4.31769531 2.15992187 5.60804688 2.4375 6.9375 C2.70433594 8.22527344 2.97117187 9.51304687 3.24609375 10.83984375 C3.67181616 13.84638879 3.67181616 13.84638879 5 15 C5.07179964 16.51928038 5.08392007 18.04167482 5.0625 19.5625 C5.05347656 20.38878906 5.04445313 21.21507812 5.03515625 22.06640625 C5.02355469 22.70449219 5.01195313 23.34257812 5 24 C4.67 24 4.34 24 4 24 C3.32533928 21.12666819 2.6600766 18.25168518 2 15.375 C1.80921875 14.56675781 1.6184375 13.75851562 1.421875 12.92578125 C0.42074457 8.52795831 -0.2353082 4.54438961 0 0 Z " fill="#8F8F8F" transform="translate(119,345)"/>
<path d="M0 0 C2 0 2 0 4.625 2.375 C7 5 7 5 7 7 C7.66 7 8.32 7 9 7 C9.66 8.98 10.32 10.96 11 13 C10.01 12.34 9.02 11.68 8 11 C8 10.34 8 9.68 8 9 C7.01 9 6.02 9 5 9 C3.35 6.03 1.7 3.06 0 0 Z " fill="#BBBBBB" transform="translate(596,195)"/>
<path d="M0 0 C6.24723226 -0.82200425 10.71317837 2.07448606 16 5 C16 5.66 16 6.32 16 7 C10.36691325 5.56176509 5.26322777 3.45855991 0 1 C0 0.67 0 0.34 0 0 Z " fill="#ABABAB" transform="translate(515,133)"/>
<path d="M0 0 C0.66 0.33 1.32 0.66 2 1 C-7.22551253 9.6309795 -7.22551253 9.6309795 -13 12 C-13 11.34 -13 10.68 -13 10 C-11.50390625 8.78125 -11.50390625 8.78125 -9.5625 7.5 C-6.77468153 5.7134637 -6.77468153 5.7134637 -5 3 C-4.34 3 -3.68 3 -3 3 C-3 2.34 -3 1.68 -3 1 C-2.01 0.67 -1.02 0.34 0 0 Z " fill="#A5A5A5" transform="translate(488,479)"/>
<path d="M0 0 C0.66 0.33 1.32 0.66 2 1 C0.92807816 2.3218362 -0.15802695 3.63217927 -1.25 4.9375 C-1.85328125 5.66839844 -2.4565625 6.39929688 -3.078125 7.15234375 C-5.10741134 9.10326334 -6.254407 9.61731779 -9 10 C-9 9.34 -9 8.68 -9 8 C-8.34 8 -7.68 8 -7 8 C-6.67 6.68 -6.34 5.36 -6 4 C-5.01 4 -4.02 4 -3 4 C-3 3.01 -3 2.02 -3 1 C-2.01 0.67 -1.02 0.34 0 0 Z " fill="#B7B7B7" transform="translate(510,457)"/>
<path d="M0 0 C0 0.99 0 1.98 0 3 C-0.99 3 -1.98 3 -3 3 C-3 3.66 -3 4.32 -3 5 C-6.3 5.33 -9.6 5.66 -13 6 C-9.19803892 3.14852919 -4.95366136 0 0 0 Z " fill="#B2B2B2" transform="translate(423,479)"/>
<path d="M0 0 C0.33 1.32 0.66 2.64 1 4 C0.29875 4.515625 -0.4025 5.03125 -1.125 5.5625 C-4.49467357 8.41939716 -7.21156604 11.58871997 -10 15 C-10.66 14.67 -11.32 14.34 -12 14 C-11.30132812 13.24074219 -10.60265625 12.48148437 -9.8828125 11.69921875 C-8.96343578 10.69540947 -8.04417079 9.69149785 -7.125 8.6875 C-6.66480469 8.18798828 -6.20460938 7.68847656 -5.73046875 7.17382812 C-3.61393392 4.85790957 -1.74473617 2.61710426 0 0 Z " fill="#A0A0A0" transform="translate(412,357)"/>
<path d="M0 0 C0.33 0 0.66 0 1 0 C1.1799928 5.21979128 0.97094808 9.07262981 -1 14 C-1.66 14 -2.32 14 -3 14 C-3.33 14.66 -3.66 15.32 -4 16 C-3.27275406 10.47293087 -1.66554027 5.30039859 0 0 Z " fill="#A1A1A1" transform="translate(230,234)"/>
<path d="M0 0 C0.66 0.33 1.32 0.66 2 1 C0.40014982 4.19970036 -2.76565719 5.0934906 -5.87109375 6.68359375 C-8.27970023 7.96893341 -8.27970023 7.96893341 -10 11 C-11.32 10.67 -12.64 10.34 -14 10 C-9.38 6.7 -4.76 3.4 0 0 Z " fill="#9F9F9F" transform="translate(327,114)"/>
<path d="M0 0 C5.92863717 1.16651426 11.38798394 2.75519358 17 5 C13.17265547 6.14417457 11.68248877 5.54150693 8 4 C5.67402489 3.6186926 3.34087842 3.27539746 1 3 C0.67 2.01 0.34 1.02 0 0 Z " fill="#A6A6A6" transform="translate(507,91)"/>
<path d="M0 0 C4.18423892 3.50897269 8.19588166 7.08060535 12 11 C9.69 10.34 7.38 9.68 5 9 C5 8.34 5 7.68 5 7 C4.34 7 3.68 7 3 7 C0 2.61538462 0 2.61538462 0 0 Z " fill="#AAAAAA" transform="translate(277,365)"/>
<path d="M0 0 C-1.93467942 0.83986084 -3.87285129 1.67168027 -5.8125 2.5 C-7.43091797 3.19609375 -7.43091797 3.19609375 -9.08203125 3.90625 C-12 5 -12 5 -15 5 C-15 4.01 -15 3.02 -15 2 C-12.69 2 -10.38 2 -8 2 C-8 1.34 -8 0.68 -8 0 C-4.71303767 -0.79953138 -3.28976808 -1.09658936 0 0 Z " fill="#A8A8A8" transform="translate(382,131)"/>
<path d="M0 0 C0.66 0 1.32 0 2 0 C0.58707905 4.8274799 -1.42974154 8.7162359 -4 13 C-4.33 11.68 -4.66 10.36 -5 9 C-4.34 9 -3.68 9 -3 9 C-2.87625 8.2575 -2.7525 7.515 -2.625 6.75 C-2.04513299 4.19858515 -1.26291261 2.2732427 0 0 Z " fill="#D9D9D9" transform="translate(276,217)"/>
<path d="M0 0 C-4.22385456 3.44165927 -7.50060584 5 -13 5 C-13 5.66 -13 6.32 -13 7 C-13.66 7 -14.32 7 -15 7 C-14 4 -14 4 -12.109375 2.83203125 C-4.27810031 -0.55201294 -4.27810031 -0.55201294 0 0 Z " fill="#E1E1E1" transform="translate(432,514)"/>
<path d="M0 0 C1.65 0 3.3 0 5 0 C1.56638098 3.63559661 -1.7973607 6.36113346 -6 9 C-6.66 8.67 -7.32 8.34 -8 8 C-6.68 7.34 -5.36 6.68 -4 6 C-4 5.34 -4 4.68 -4 4 C-3.01 3.67 -2.02 3.34 -1 3 C-0.67 2.01 -0.34 1.02 0 0 Z " fill="#9E9E9E" transform="translate(470,491)"/>
<path d="M0 0 C0.33 1.32 0.66 2.64 1 4 C0.34 4 -0.32 4 -1 4 C-1.103125 4.721875 -1.20625 5.44375 -1.3125 6.1875 C-2.05986932 9.24491993 -3.28045189 11.38329635 -5 14 C-5.68359375 12.328125 -5.68359375 12.328125 -6 10 C-4.78515625 7.421875 -4.78515625 7.421875 -3.0625 4.75 C-2.49660156 3.85796875 -1.93070312 2.9659375 -1.34765625 2.046875 C-0.90292969 1.37140625 -0.45820313 0.6959375 0 0 Z " fill="#A2A2A2" transform="translate(509,395)"/>
<path d="M0 0 C0.99 0.495 0.99 0.495 2 1 C2 1.99 2 2.98 2 4 C2.66 4 3.32 4 4 4 C5.60725635 7.21451269 5.05748185 10.43612536 5 14 C2.42853943 11.42853943 2.19882003 9.3949583 1.375 5.875 C1.11460937 4.77929688 0.85421875 3.68359375 0.5859375 2.5546875 C0.39257812 1.71164062 0.19921875 0.86859375 0 0 Z " fill="#B7B7B7" transform="translate(256,328)"/>
<path d="M0 0 C0.33 0 0.66 0 1 0 C1.34833144 4.87664009 0.41685712 7.77050005 -2 12 C-2.33 12 -2.66 12 -3 12 C-2.88541307 10.56163249 -2.75790884 9.12429034 -2.625 7.6875 C-2.55539062 6.88699219 -2.48578125 6.08648437 -2.4140625 5.26171875 C-2 3 -2 3 0 0 Z " fill="#BCBCBC" transform="translate(335,251)"/>
<path d="M0 0 C-0.33 0.66 -0.66 1.32 -1 2 C-4.16015625 2.4140625 -4.16015625 2.4140625 -8.0625 2.625 C-9.35285156 2.69976562 -10.64320313 2.77453125 -11.97265625 2.8515625 C-12.97167969 2.90054688 -13.97070312 2.94953125 -15 3 C-12.74829688 0.74829688 -11.67012422 0.48526 -8.625 -0.1875 C-7.85414063 -0.36667969 -7.08328125 -0.54585937 -6.2890625 -0.73046875 C-3.88917728 -1.01304909 -2.28329465 -0.73503321 0 0 Z " fill="#A6A6A6" transform="translate(423,188)"/>
<path d="M0 0 C0.66 0.33 1.32 0.66 2 1 C0.42982807 2.36940568 -1.15665391 3.72012895 -2.75 5.0625 C-3.63171875 5.81660156 -4.5134375 6.57070313 -5.421875 7.34765625 C-6.69804687 8.16556641 -6.69804687 8.16556641 -8 9 C-9.32 8.67 -10.64 8.34 -12 8 C-8.04 5.36 -4.08 2.72 0 0 Z " fill="#A1A1A1" transform="translate(452,461)"/>
<path d="M0 0 C0 3.48961209 -0.90379374 5.11480295 -2.5 8.1875 C-2.9640625 9.08855469 -3.428125 9.98960937 -3.90625 10.91796875 C-4.2671875 11.60503906 -4.628125 12.29210937 -5 13 C-5.66 13 -6.32 13 -7 13 C-5.58832253 7.73829306 -3.25149768 4.27828642 0 0 Z " fill="#9D9D9D" transform="translate(343,238)"/>
<path d="M0 0 C5.44567686 1.02862785 10.11817117 2.24614784 15 5 C11.06329512 6.31223496 8.87511856 5.24296256 5 4 C5 3.34 5 2.68 5 2 C3.35 2 1.7 2 0 2 C0 1.34 0 0.68 0 0 Z " fill="#ABABAB" transform="translate(485,192)"/>
<path d="M0 0 C0.93045933 2.55144824 1.08564091 3.74006478 0.22265625 6.359375 C-0.16019531 7.14828125 -0.54304687 7.9371875 -0.9375 8.75 C-1.50791016 9.94882812 -1.50791016 9.94882812 -2.08984375 11.171875 C-2.39019531 11.77515625 -2.69054687 12.3784375 -3 13 C-3.66 13 -4.32 13 -5 13 C-4.54554036 11.58208592 -4.08625056 10.16571954 -3.625 8.75 C-3.24214844 7.56664062 -3.24214844 7.56664062 -2.8515625 6.359375 C-2.04826333 4.13372042 -1.10288338 2.09068328 0 0 Z " fill="#9F9F9F" transform="translate(515,382)"/>
<path d="M0 0 C1.31534494 3.65857532 0.65468309 6.08026481 -0.4375 9.75 C-0.86869141 11.22726562 -0.86869141 11.22726562 -1.30859375 12.734375 C-1.53675781 13.48203125 -1.76492188 14.2296875 -2 15 C-2.66 15 -3.32 15 -4 15 C-4.42316559 10.34517848 -2.93697604 7.18386825 -1 3 C-0.67 2.01 -0.34 1.02 0 0 Z " fill="#CFCFCF" transform="translate(560,360)"/>
<path d="M0 0 C0 3.80345877 -1.13786331 4.77701015 -3.5 7.6875 C-4.47453125 8.89986328 -4.47453125 8.89986328 -5.46875 10.13671875 C-5.9740625 10.75160156 -6.479375 11.36648437 -7 12 C-7.33 11.34 -7.66 10.68 -8 10 C-6.02235218 5.93483504 -3.2626876 3.08632611 0 0 Z " fill="#9D9D9D" transform="translate(298,188)"/>
<path d="M0 0 C1.33804687 0.04060547 1.33804687 0.04060547 2.703125 0.08203125 C3.37859375 0.11683594 4.0540625 0.15164063 4.75 0.1875 C4.75 0.5175 4.75 0.8475 4.75 1.1875 C-0.09241633 2.52333899 -4.18437617 3.44078119 -9.25 3.1875 C-6.10408067 0.38704377 -4.182936 -0.16511589 0 0 Z " fill="#A7A7A7" transform="translate(394.25,526.8125)"/>
<path d="M0 0 C5.3503559 0.57021934 10.67787852 1.20734361 16 2 C16 2.33 16 2.66 16 3 C14.08404032 3.08133791 12.16708068 3.13934367 10.25 3.1875 C8.64898437 3.23970703 8.64898437 3.23970703 7.015625 3.29296875 C3.69972145 2.97082786 2.40983327 2.22851086 0 0 Z " fill="#9F9F9F" transform="translate(292,491)"/>
<path d="M0 0 C2 2 2 2 2.125 4.625 C2.08375 5.40875 2.0425 6.1925 2 7 C2.99 7 3.98 7 5 7 C4.67 8.32 4.34 9.64 4 11 C2 9.4375 2 9.4375 0 7 C-0.25 3.25 -0.25 3.25 0 0 Z " fill="#C6C6C6" transform="translate(139,403)"/>
<path d="M0 0 C-1.36157378 5.29500913 -4.60343955 7.23745533 -9 10 C-8.67 8.68 -8.34 7.36 -8 6 C-7.34 6 -6.68 6 -6 6 C-6 5.34 -6 4.68 -6 4 C-2.47058824 0 -2.47058824 0 0 0 Z " fill="#BCBCBC" transform="translate(290,200)"/>
<path d="M0 0 C0.8971875 0.309375 0.8971875 0.309375 1.8125 0.625 C0.8225 0.955 -0.1675 1.285 -1.1875 1.625 C-1.1875 2.285 -1.1875 2.945 -1.1875 3.625 C-5.61826923 5.71730769 -5.61826923 5.71730769 -8.5 5.25 C-9.056875 5.04375 -9.61375 4.8375 -10.1875 4.625 C-8.5375 4.295 -6.8875 3.965 -5.1875 3.625 C-5.1875 2.965 -5.1875 2.305 -5.1875 1.625 C-2.1875 -0.375 -2.1875 -0.375 0 0 Z " fill="#B9B9B9" transform="translate(392.1875,124.375)"/>
<path d="M0 0 C1.8125 0.125 1.8125 0.125 4 1 C5.8125 3.9375 5.8125 3.9375 7 7 C6.67 7.66 6.34 8.32 6 9 C4.99406757 7.8803014 3.9954151 6.7540588 3 5.625 C2.443125 4.99851563 1.88625 4.37203125 1.3125 3.7265625 C0 2 0 2 0 0 Z " fill="#ACACAC" transform="translate(509,250)"/>
<path d="M0 0 C3.19199167 2.41556126 5.74716687 4.68003538 8 8 C7.67 8.66 7.34 9.32 7 10 C4 9 4 9 2.375 6.125 C1 3 1 3 0 0 Z " fill="#A3A3A3" transform="translate(538,228)"/>
<path d="M0 0 C-0.33 0.66 -0.66 1.32 -1 2 C-3.32249342 2.40197001 -5.65885633 2.72686657 -8 3 C-9.66934283 3.31966139 -11.3373217 3.64731066 -13 4 C-8.93522219 0.68795882 -5.26054188 -1.94834884 0 0 Z " fill="#A9A9A9" transform="translate(366,98)"/>
<path d="M0 0 C4.1424367 1.38081223 5.32203099 3.59825558 8 7 C7.67 7.66 7.34 8.32 7 9 C5.82460004 8.07347299 4.65989423 7.13336613 3.5 6.1875 C2.52546875 5.40439453 2.52546875 5.40439453 1.53125 4.60546875 C0 3 0 3 0 0 Z " fill="#ABABAB" transform="translate(269,356)"/>
<path d="M0 0 C0.99 0 1.98 0 3 0 C1.84414715 3.91211733 0.64465038 6.8745041 -2 10 C-2.22036864 6.14354879 -1.60355101 3.50776784 0 0 Z " fill="#DEDEDE" transform="translate(453,352)"/>
<path d="M0 0 C0.33 0.66 0.66 1.32 1 2 C0.22265625 3.9453125 0.22265625 3.9453125 -0.9375 6.125 C-1.31777344 6.84945312 -1.69804687 7.57390625 -2.08984375 8.3203125 C-2.39019531 8.87460938 -2.69054687 9.42890625 -3 10 C-3.66 10 -4.32 10 -5 10 C-3.14285714 2.42857143 -3.14285714 2.42857143 0 0 Z " fill="#C0C0C0" transform="translate(266,169)"/>
<path d="M0 0 C0.99 0.33 1.98 0.66 3 1 C-0.625 5.875 -0.625 5.875 -4 7 C-4 5.68 -4 4.36 -4 3 C-2.68 2.67 -1.36 2.34 0 2 C0 1.34 0 0.68 0 0 Z " fill="#C7C7C7" transform="translate(333,152)"/>
<path d="M0 0 C4.43379675 2.21689838 6.46636932 4.77728219 9 9 C4.2962963 7.51461988 4.2962963 7.51461988 2.8125 4.9375 C2.544375 4.298125 2.27625 3.65875 2 3 C1.34 2.67 0.68 2.34 0 2 C0 1.34 0 0.68 0 0 Z " fill="#B2B2B2" transform="translate(588,134)"/>
<path d="M0 0 C3.3 0.33 6.6 0.66 10 1 C10 1.66 10 2.32 10 3 C10.66 3.33 11.32 3.66 12 4 C7.80530429 3.40075776 3.99000166 2.42500059 0 1 C0 0.67 0 0.34 0 0 Z " fill="#A0A0A0" transform="translate(268,522)"/>
<path d="M0 0 C3.24208567 0.35049575 4.61527704 0.56221181 6.8125 3.0625 C7.204375 3.701875 7.59625 4.34125 8 5 C4.75791433 4.64950425 3.38472296 4.43778819 1.1875 1.9375 C0.795625 1.298125 0.40375 0.65875 0 0 Z " fill="#B9B9B9" transform="translate(196,481)"/>
<path d="M0 0 C0.33 0.99 0.66 1.98 1 3 C-0.21484375 4.82421875 -0.21484375 4.82421875 -1.9375 6.6875 C-2.50339844 7.31011719 -3.06929688 7.93273437 -3.65234375 8.57421875 C-4.09707031 9.04472656 -4.54179687 9.51523437 -5 10 C-5.66 9.67 -6.32 9.34 -7 9 C-4.69 6.03 -2.38 3.06 0 0 Z " fill="#DDDDDD" transform="translate(492,424)"/>
<path d="M0 0 C0.33 0.66 0.66 1.32 1 2 C-2.17320782 5.53586014 -4.16743695 7.58578031 -9 8 C-6.14723863 5.06799526 -3.34920216 2.35684596 0 0 Z " fill="#A3A3A3" transform="translate(399,372)"/>
<path d="M0 0 C3.40843742 2.88406243 4.86591384 4.3708265 5.8125 8.8125 C5.9053125 10.3903125 5.9053125 10.3903125 6 12 C3.25207517 8.59780735 0 4.51535412 0 0 Z " fill="#969696" transform="translate(520,266)"/>
<path d="M0 0 C-1.4317616 0.69937202 -2.87067032 1.38412718 -4.3125 2.0625 C-5.51326172 2.63677734 -5.51326172 2.63677734 -6.73828125 3.22265625 C-9 4 -9 4 -12 3 C-10.68 2.67 -9.36 2.34 -8 2 C-8 1.34 -8 0.68 -8 0 C-4.71303767 -0.79953138 -3.28976808 -1.09658936 0 0 Z " fill="#A2A2A2" transform="translate(395,420)"/>
<path d="M0 0 C0.33 0.99 0.66 1.98 1 3 C0.01 4.485 0.01 4.485 -1 6 C-1.66 6 -2.32 6 -3 6 C-3.66 7.32 -4.32 8.64 -5 10 C-5 6.60406522 -4.47834052 5.93380119 -2.5 3.3125 C-2.0359375 2.68988281 -1.571875 2.06726563 -1.09375 1.42578125 C-0.7328125 0.95527344 -0.371875 0.48476563 0 0 Z " fill="#E3E3E3" transform="translate(503,409)"/>
<path d="M0 0 C0.33 0 0.66 0 1 0 C1.3125 2.6875 1.3125 2.6875 1 6 C-1.5 8.875 -1.5 8.875 -4 11 C-2.7874262 7.27566618 -1.49140021 3.62197194 0 0 Z " fill="#9B9B9B" transform="translate(421,340)"/>
<path d="M0 0 C0.33 0 0.66 0 1 0 C0.88541307 1.43836751 0.75790884 2.87570966 0.625 4.3125 C0.55539062 5.11300781 0.48578125 5.91351563 0.4140625 6.73828125 C0 9 0 9 -2 12 C-2 9.36 -2 6.72 -2 4 C-1.34 4 -0.68 4 0 4 C0 2.68 0 1.36 0 0 Z " fill="#9B9B9B" transform="translate(260,264)"/>
<path d="M0 0 C5.66153846 2.46153846 5.66153846 2.46153846 7.375 5.1875 C7.58125 5.785625 7.7875 6.38375 8 7 C6.02 6.34 4.04 5.68 2 5 C2 4.01 2 3.02 2 2 C1.34 2 0.68 2 0 2 C0 1.34 0 0.68 0 0 Z " fill="#BABABA" transform="translate(565,117)"/>
<path d="M0 0 C2.27521866 2.16687491 4.15794162 4.45620509 6 7 C5.67 7.66 5.34 8.32 5 9 C2.5 6.75 2.5 6.75 0 4 C0 2.68 0 1.36 0 0 Z " fill="#A4A4A4" transform="translate(181,407)"/>
<path d="M0 0 C0.99 0.33 1.98 0.66 3 1 C3.73046875 3.06640625 3.73046875 3.06640625 4.1875 5.5625 C4.34605469 6.38878906 4.50460937 7.21507812 4.66796875 8.06640625 C4.77753906 8.70449219 4.88710938 9.34257812 5 10 C4.34 10 3.68 10 3 10 C2.01 6.7 1.02 3.4 0 0 Z " fill="#DBDBDB" transform="translate(527,279)"/>
<path d="M0 0 C0.33 0 0.66 0 1 0 C1 2.97 1 5.94 1 9 C0.01 9.33 -0.98 9.66 -2 10 C-2 8.68 -2 7.36 -2 6 C-1.34 6 -0.68 6 0 6 C0 4.02 0 2.04 0 0 Z " fill="#DDDDDD" transform="translate(529,341)"/>
<path d="M0 0 C-0.57344937 2.86724686 -0.8614515 3.8614515 -3 6 C-3.99 6 -4.98 6 -6 6 C-6 4 -6 4 -4.125 1.875 C-2 0 -2 0 0 0 Z " fill="#BBBBBB" transform="translate(314,170)"/>
<path d="M0 0 C1.32 0 2.64 0 4 0 C4.33 1.65 4.66 3.3 5 5 C3.0625 4.1875 3.0625 4.1875 1 3 C0.67 2.01 0.34 1.02 0 0 Z " fill="#BABABA" transform="translate(562,159)"/>
</svg>
